<svg width="35" height="35" viewBox="0 0 35 35" fill="none" xmlns="http://www.w3.org/2000/svg">
<path d="M35 13.3984C35 11.1368 33.16 9.29688 30.8984 9.29688H24.6094V7.07588L23.8422 6.7012C23.602 6.5839 17.8956 3.82812 12.3047 3.82812C6.71378 3.82812 1.00734 6.5839 0.767197 6.7012L0 7.07588V16.9866L0.767197 17.3613C1.00734 17.4786 6.71378 20.2344 12.3047 20.2344C15.969 20.2344 19.6829 19.0506 21.875 18.2018V20.2344H12.3047H0V28.4375H2.96953C3.53391 30.0288 5.0536 31.1719 6.83594 31.1719C8.61827 31.1719 10.1379 30.0288 10.7023 28.4375H13.9071C14.4715 30.0288 15.9912 31.1719 17.7735 31.1719C19.5558 31.1719 21.0755 30.0288 21.6399 28.4375H24.2978C24.8622 30.0288 26.3819 31.1719 28.1642 31.1719C29.9465 31.1719 31.4662 30.0288 32.0306 28.4375H35V13.3984ZM32.2656 13.3984V17.5H29.5312V12.0312H30.8984C31.6523 12.0312 32.2656 12.6446 32.2656 13.3984ZM2.73438 8.81446C4.19357 8.19191 7.52787 6.91612 10.9375 6.62375V17.4384C7.5356 17.1452 4.19542 15.869 2.73438 15.2471V8.81446ZM13.6719 17.4388V6.62409C17.0738 6.91729 20.414 8.19349 21.875 8.81535V9.29688V15.248C20.4158 15.8706 17.0816 17.1464 13.6719 17.4388ZM6.83594 28.4375C6.08207 28.4375 5.46875 27.8242 5.46875 27.0703C5.46875 26.3164 6.08207 25.7031 6.83594 25.7031C7.5898 25.7031 8.20312 26.3164 8.20312 27.0703C8.20312 27.8242 7.5898 28.4375 6.83594 28.4375ZM17.7734 28.4375C17.0196 28.4375 16.4062 27.8242 16.4062 27.0703C16.4062 26.3164 17.0196 25.7031 17.7734 25.7031C18.5273 25.7031 19.1406 26.3164 19.1406 27.0703C19.1406 27.8242 18.5273 28.4375 17.7734 28.4375ZM28.1641 28.4375C27.4102 28.4375 26.7969 27.8242 26.7969 27.0703C26.7969 26.3164 27.4102 25.7031 28.1641 25.7031C28.9179 25.7031 29.5312 26.3164 29.5312 27.0703C29.5312 27.8242 28.9179 28.4375 28.1641 28.4375ZM32.0305 25.7031C31.4661 24.1119 29.9464 22.9688 28.1641 22.9688C26.3817 22.9688 24.8621 24.1119 24.2977 25.7031H21.6398C21.0755 24.1119 19.5558 22.9688 17.7734 22.9688C15.9911 22.9688 14.4715 24.1119 13.907 25.7031H10.7023C10.138 24.1119 8.61827 22.9688 6.83594 22.9688C5.0536 22.9688 3.53397 24.1119 2.96953 25.7031H2.73438V22.9688H6.83594H17.7734H24.6094V16.9866V12.0312H26.7969V20.2344H32.2656V25.7031H32.0305Z" fill="#FF6B00"/>
</svg>
