<svg width="35" height="35" viewBox="0 0 35 35" fill="none" xmlns="http://www.w3.org/2000/svg">
<g clip-path="url(#clip0_148_4289)">
<path d="M24.7712 10.1172V22.247C23.18 22.8112 22.0368 24.3309 22.0368 26.1133C22.0368 28.375 23.8769 30.2148 26.1384 30.2148C28.4001 30.2148 30.2399 28.375 30.2399 26.1133C30.2399 24.3309 29.0968 22.8112 27.5056 22.247V10.1172H24.7712ZM26.1384 27.4805C25.3846 27.4805 24.7712 26.8671 24.7712 26.1133C24.7712 25.3595 25.3846 24.7461 26.1384 24.7461C26.8922 24.7461 27.5056 25.3595 27.5056 26.1133C27.5056 26.8671 26.8922 27.4805 26.1384 27.4805ZM35.0251 26.1133C35.0251 31.0135 31.0386 35 26.1384 35C21.2384 35 17.2517 31.0135 17.2517 26.1133C17.2517 24.8745 17.5021 23.675 17.9961 22.5484L20.5003 23.6462C20.1591 24.4246 19.986 25.2548 19.986 26.1133C19.986 29.5059 22.746 32.2656 26.1384 32.2656C29.5307 32.2656 32.2907 29.5059 32.2907 26.1133C32.2907 24.2713 31.4752 22.5412 30.053 21.3668L29.5564 20.9567V6.15234C29.5564 4.26765 28.0231 2.73438 26.1384 2.73438C25.3245 2.73438 24.5359 3.02517 23.9186 3.55335L22.1412 1.47533C23.2537 0.523911 24.6732 0 26.1384 0C29.5307 0 32.2907 2.76001 32.2907 6.15234V19.7003C34.0363 21.3733 35.0251 23.6753 35.0251 26.1133ZM12.7399 14.1063V18.3945L15.7859 21.4403L13.8524 23.3738L11.3728 20.8942L8.89313 23.3738L6.95984 21.4403L10.0056 18.3945V14.1063L6.31123 16.2834L5.23376 20.4541L2.58617 19.77L3.46363 16.3747L0.0683594 15.4976L0.752487 12.85L4.92294 13.9277L8.68004 11.7138L4.92294 9.49982L0.752487 10.5773L0.0683594 7.92995L3.46363 7.05276L2.58617 3.65749L5.23376 2.97337L6.31123 7.14409L10.0056 9.32117V5.03323L6.95984 1.98669L8.89366 0.0536728C8.89366 0.0536728 10.8934 2.05425 11.3725 2.5333L13.8524 0.0536728L15.7859 1.98696L12.7399 5.03296V9.32117L16.4343 7.14409L17.5123 2.9731L20.1596 3.65803L19.8173 4.98142C19.6544 5.61161 19.4514 6.39668 19.2819 7.05276L22.6772 7.92995L21.9933 10.5775L17.8226 9.49982L14.0657 11.7138L17.8226 13.9277L21.9933 12.85L22.6772 15.4976L19.2819 16.3747C19.4514 17.0308 20.1596 19.7695 20.1596 19.7695L17.5123 20.4544L16.4343 16.2834L12.7399 14.1063Z" fill="#FF6B00"/>
</g>
<defs>
<clipPath id="clip0_148_4289">
<rect width="35" height="35" fill="white"/>
</clipPath>
</defs>
</svg>
