<svg width="35" height="35" viewBox="0 0 35 35" fill="none" xmlns="http://www.w3.org/2000/svg">
<g clip-path="url(#clip0_148_4287)">
<path d="M35 20.671C35 19.4894 34.608 18.3195 33.8964 17.3764L30.0757 12.3143C29.3053 11.2932 28.0813 10.6836 26.8019 10.6836H24.0625V7.94224C24.0625 5.68077 22.2227 3.84762 19.9609 3.84762H17.5876L20.382 6.64208C20.9305 6.82018 21.3281 7.33555 21.3281 7.94224V27.2949H13.0948C12.5306 25.7037 11.0109 24.5605 9.22852 24.5605C7.4461 24.5605 5.92644 25.7037 5.36221 27.2949H4.10156C3.34774 27.2949 2.73438 26.6815 2.73438 25.9277V7.94224C2.73438 7.30618 3.17177 6.77158 3.7611 6.61964L6.53339 3.84762H4.10156C1.83983 3.84762 0 4.65538 0 6.91685V25.5859C0 27.8474 1.83983 30.0293 4.10156 30.0293H5.36221C5.92644 31.6205 7.4461 32.7636 9.22852 32.7636C11.0109 32.7636 12.5306 31.6205 13.0948 30.0293H21.5634C22.1276 31.6205 23.6473 32.7636 25.4297 32.7636C27.2121 32.7636 28.7318 31.6205 29.296 30.0293H35V20.671ZM26.8019 13.4179C27.2284 13.4179 27.6364 13.6211 27.8933 13.9613L31.3524 18.5449H24.0625V13.4179H26.8019ZM9.22852 30.0293C8.47469 30.0293 7.86133 29.4159 7.86133 28.6621C7.86133 27.9083 8.47469 27.2949 9.22852 27.2949C9.98234 27.2949 10.5957 27.9083 10.5957 28.6621C10.5957 29.4159 9.98234 30.0293 9.22852 30.0293ZM25.4297 30.0293C24.6759 30.0293 24.0625 29.4159 24.0625 28.6621C24.0625 27.9083 24.6759 27.2949 25.4297 27.2949C26.1835 27.2949 26.7969 27.9083 26.7969 28.6621C26.7969 29.4159 26.1835 30.0293 25.4297 30.0293ZM29.296 27.2949C28.7318 25.7037 27.2121 24.5605 25.4297 24.5605C24.9504 24.5605 24.4905 24.6438 24.0625 24.7955V21.2793H32.2656V27.2949H29.296ZM10.7324 19.2968V7.38255L7.83195 10.283L5.8984 8.34946L12.0604 2.1875L18.2226 8.34946L16.289 10.283L13.4668 7.46079V19.2968H10.7324Z" fill="#FF6B00"/>
</g>
<defs>
<clipPath id="clip0_148_4287">
<rect width="35" height="35" fill="white"/>
</clipPath>
</defs>
</svg>
