<svg width="35" height="35" viewBox="0 0 35 35" fill="none" xmlns="http://www.w3.org/2000/svg">
<g clip-path="url(#clip0_148_4284)">
<path d="M24.1008 2.73438C23.5363 1.14311 22.0167 0 20.2344 0C18.675 0 17.2725 0.864268 16.5707 2.25641L10.8804 13.125H9.57031C7.30871 13.125 5.46875 14.965 5.46875 17.2266V18.5938H0V22.6953C0 23.9481 0.565195 25.0708 1.45325 25.8237C0.552002 26.7991 0 28.1017 0 29.5312C0 32.5467 2.45328 35 5.46875 35H24.3359C27.3514 35 29.8047 32.5467 29.8047 29.5312C29.8047 26.5158 27.3514 24.0625 24.3359 24.0625H21.6016V17.2266C21.6016 15.7916 20.8602 14.5271 19.741 13.794C19.7891 13.7032 19.213 14.7908 23.9045 5.93421C23.9797 5.78361 24.0448 5.62789 24.1008 5.46875H32.2656V15.8594H24.0625V17.2266C24.0625 20.9959 27.129 24.0625 30.8984 24.0625H35C35 20.2995 35 7.90282 35 2.73438H24.1008ZM24.3359 26.7969C25.8437 26.7969 27.0703 28.0235 27.0703 29.5312C27.0703 31.039 25.8437 32.2656 24.3359 32.2656H5.46875C3.96102 32.2656 2.73438 31.039 2.73438 29.5312C2.73438 28.0235 3.96102 26.7969 5.46875 26.7969H24.3359ZM4.10156 24.0625C3.3477 24.0625 2.73438 23.4492 2.73438 22.6953V21.3281H8.20312V17.2266C8.20312 16.4727 8.81645 15.8594 9.57031 15.8594H17.5C18.2539 15.8594 18.8672 16.4727 18.8672 17.2266V18.5938H12.0312V21.3281H18.8672V24.0625C18.1256 24.0625 4.76349 24.0625 4.10156 24.0625ZM21.4646 4.69937L17.001 13.125H13.9669C14.0893 12.8913 13.1765 14.6347 19.0101 3.4918C19.2436 3.02463 19.7128 2.73438 20.2344 2.73438C20.9882 2.73438 21.6016 3.3477 21.6016 4.10156C21.6016 4.31211 21.5555 4.51315 21.4646 4.69937ZM32.2656 21.3281H30.8984C29.116 21.3281 27.5954 20.1852 27.0311 18.5938H32.2656V21.3281Z" fill="#FF6B00"/>
</g>
<defs>
<clipPath id="clip0_148_4284">
<rect width="35" height="35" fill="white"/>
</clipPath>
</defs>
</svg>
