<svg width="35" height="35" viewBox="0 0 35 35" fill="none" xmlns="http://www.w3.org/2000/svg">
<g clip-path="url(#clip0_148_4291)">
<path d="M23.4365 12.9706L27.3035 9.10357L25.37 7.1701L26.1421 6.39798C26.9167 5.6234 27.9466 5.19677 29.042 5.19663L32.8126 5.19629L32.8124 2.46191L29.0418 2.46226C27.2161 2.46239 25.4996 3.17347 24.2087 4.46443L23.4365 5.23655L21.5031 3.30308L17.4697 7.33635C15.9454 6.61023 14.0626 6.87649 12.8023 8.13677L1.20224 19.7378C-0.400646 21.3407 -0.400851 23.9352 1.20224 25.5383L2.16898 26.5051L8.55776e-06 28.6584L1.94914 30.5919L4.10246 28.4385L7.00267 31.3388C8.60174 32.9379 11.204 32.938 12.8032 31.3388L13.9336 30.2075C15.4272 30.9225 17.3165 30.6916 18.6027 29.4053C20.0169 27.9911 21.0988 26.2407 21.7312 24.3433L22.6979 21.4431L24.4032 19.7378C26.0024 18.1386 26.0024 15.5365 24.4032 13.9373L23.4365 12.9706ZM23.4365 9.10357L21.5031 11.0371L19.5695 9.10357L21.5031 7.1701L23.4365 9.10357ZM16.6692 27.4718C16.1351 28.0061 15.2702 28.0062 14.7358 27.4718L12.8023 25.5383C12.268 25.004 12.2679 24.1392 12.8023 23.6049L13.769 22.6381L15.7025 24.5716L17.636 22.6381L15.7025 20.7046L16.6692 19.7379C17.2035 19.2036 18.0683 19.2035 18.6027 19.7379L19.9387 21.0739L19.1371 23.4787C18.6383 24.9754 17.7849 26.3562 16.6692 27.4718ZM22.4698 17.8044L21.5031 18.7711L20.5363 17.8044C18.9335 16.2015 16.3389 16.2013 14.7358 17.8044L10.8688 21.6713C9.26592 23.2742 9.26571 25.8687 10.8688 27.4718L11.8355 28.4385L10.8697 29.4053C10.3366 29.9384 9.46922 29.9384 8.93615 29.4053L3.13565 23.6048C2.60136 23.0704 2.60129 22.2057 3.13565 21.6713L14.7357 10.0703C15.2687 9.53738 16.1361 9.53718 16.6692 10.0703L22.4697 15.8708C23.0029 16.4039 23.0029 17.2713 22.4698 17.8044Z" fill="#FF6B00"/>
<path d="M34.4835 15.4906L30.8984 9.30764C30.8311 9.42372 31.4658 8.32915 27.3133 15.4906C26.9754 16.1238 26.7969 16.8191 26.7969 17.5014C26.7969 19.763 28.6368 21.603 30.8984 21.603C33.16 21.603 35 19.763 35 17.5014C35 16.8191 34.8214 16.1238 34.4835 15.4906ZM30.8984 18.8686C30.1446 18.8686 29.5312 18.2553 29.5312 17.5014C29.5312 17.2693 29.5934 17.0323 29.716 16.7965L30.8984 14.7577L32.0809 16.7965C32.2035 17.0323 32.2656 17.2693 32.2656 17.5014C32.2656 18.2553 31.6523 18.8686 30.8984 18.8686Z" fill="#FF6B00"/>
</g>
<defs>
<clipPath id="clip0_148_4291">
<rect width="35" height="35" fill="white"/>
</clipPath>
</defs>
</svg>
