<svg width="20" height="20" viewBox="0 0 20 20" fill="none" xmlns="http://www.w3.org/2000/svg">
<g clip-path="url(#clip0_148_4333)">
<path fill-rule="evenodd" clip-rule="evenodd" d="M18.7151 17.177L17.44 18.4519L17.4098 18.4707C16.7395 18.8907 15.908 19.1012 14.963 19.1012C14.067 19.1012 13.0697 18.9121 12.0104 18.534C9.86615 17.7679 7.61423 16.2754 5.66927 14.3304C3.72451 12.3855 2.23166 10.1336 1.46603 7.98946C0.688688 5.8129 0.711188 3.89532 1.5292 2.58981L1.54787 2.55981L2.82306 1.28477C3.07181 1.03594 3.40349 0.898834 3.75728 0.898834C4.11091 0.898834 4.44275 1.03594 4.6915 1.28477L7.75263 4.34571C8.00138 4.59454 8.1383 4.92657 8.1383 5.28012C8.1383 5.63395 8.00138 5.96567 7.75263 6.21446L6.5367 7.43044C6.33115 7.8484 6.37599 8.48048 6.66466 9.21719C6.98424 10.0332 7.57877 10.9011 8.33873 11.6609C9.09888 12.4211 9.96685 13.0156 10.7826 13.3352C11.5195 13.6238 12.1517 13.6687 12.5696 13.4633L13.7854 12.2472C14.0341 11.9984 14.3663 11.8617 14.7198 11.8617C15.0736 11.8617 15.4053 11.9984 15.654 12.2472L18.7151 15.3082C19.2301 15.8234 19.2301 16.6617 18.7151 17.177Z" fill="white"/>
</g>
<defs>
<clipPath id="clip0_148_4333">
<rect width="20" height="20" fill="white"/>
</clipPath>
</defs>
</svg>
