<svg width="30" height="31" viewBox="0 0 30 31" fill="none" xmlns="http://www.w3.org/2000/svg">
<path fill-rule="evenodd" clip-rule="evenodd" d="M11.0906 6.77417H27.745L17.8531 13.5554L11.1246 8.94273C11.3808 8.25677 11.3829 7.4814 11.0906 6.77417ZM6.73492 10.71L9.16246 9.23195C9.88287 8.79331 10.122 7.85745 9.70023 7.12697L7.50865 3.33103C7.28383 2.94156 6.94352 2.69101 6.50488 2.59199C6.06619 2.4929 5.65135 2.57288 5.28092 2.82794L1.28412 5.57974C-0.61836 12.2831 7.931 26.7956 14.4879 28.4492L18.8694 26.3638C19.2754 26.1706 19.5522 25.8512 19.6857 25.4218C19.8193 24.9924 19.7724 24.5724 19.5476 24.183L17.356 20.387C16.9343 19.6565 16.0042 19.3957 15.2641 19.8003L12.7703 21.1635C10.3041 18.9702 7.40137 13.9425 6.73492 10.71ZM28.9546 7.64628L18.2487 14.9856C17.9982 15.1566 17.6763 15.1432 17.4435 14.9759L10.3361 10.1036C10.2014 10.2249 10.054 10.3356 9.89377 10.4331L8.35838 11.3679C9.16504 13.9712 11.161 17.4284 13.0122 19.4286L14.5895 18.5663C15.9988 17.7959 17.7707 18.2929 18.5737 19.6839L19.9329 22.038H27.8494C28.4744 22.038 28.9858 21.5266 28.9858 20.9015V7.91066C28.9859 7.81972 28.975 7.73118 28.9546 7.64628Z" fill="#3478F6"/>
</svg>
