<svg width="30" height="31" viewBox="0 0 30 31" fill="none" xmlns="http://www.w3.org/2000/svg">
<g clip-path="url(#clip0_129_68)">
<path d="M12.5 30.7858C14.7639 30.7858 16.6576 29.1719 17.0925 27.0358H7.90747C8.34258 29.1719 10.2363 30.7858 12.5 30.7858Z" fill="#3478F6"/>
<path d="M21.9699 18.9057C21.9374 18.9057 21.9074 18.9107 21.8749 18.9107C16.3612 18.9107 11.8751 14.4246 11.8751 8.91084C11.8751 6.74448 12.575 4.74336 13.7501 3.1032V2.03569C13.7501 1.34447 13.19 0.785767 12.4999 0.785767C11.8101 0.785767 11.25 1.34447 11.25 2.03569V3.38586C7.01614 3.99583 3.75 7.63712 3.75 12.0358V15.5207C3.75 17.9945 2.66624 20.3295 0.764923 21.937C0.278778 22.3533 0 22.9582 0 23.5982C0 24.8046 0.981216 25.7858 2.18742 25.7858H22.8124C24.0189 25.7858 25.0001 24.8046 25.0001 23.5982C25.0001 22.9582 24.7213 22.3533 24.2226 21.9271C23.2375 21.0933 22.4776 20.0558 21.9699 18.9057Z" fill="#3478F6"/>
<path d="M21.8748 0.785767C17.3949 0.785767 13.75 4.43071 13.75 8.91084C13.75 13.3907 17.3949 17.0357 21.8748 17.0357C26.355 17.0357 29.9999 13.3907 29.9999 8.91084C29.9999 4.43071 26.355 0.785767 21.8748 0.785767ZM23.125 11.7233C23.125 12.2408 22.705 12.6608 22.1875 12.6608C21.67 12.6608 21.25 12.2408 21.25 11.7233V7.66069H20.6249C20.1074 7.66069 19.6874 7.24069 19.6874 6.72319C19.6874 6.20569 20.1074 5.78569 20.6249 5.78569H22.1875C22.705 5.78569 23.125 6.20569 23.125 6.72319V11.7233Z" fill="#3478F6"/>
</g>
<defs>
<clipPath id="clip0_129_68">
<rect width="30" height="30" fill="white" transform="translate(0 0.785767)"/>
</clipPath>
</defs>
</svg>
