<svg width="30" height="31" viewBox="0 0 30 31" fill="none" xmlns="http://www.w3.org/2000/svg">
<path d="M14.0625 21.6577H13.125V22.5986C13.125 22.9607 12.9181 23.2895 12.594 23.4467C12.269 23.6028 11.8826 23.5588 11.6016 23.3336L6.91406 19.57C6.69159 19.3909 6.5625 19.1208 6.5625 18.835C6.5625 18.5493 6.69159 18.2791 6.91406 18.0999L11.6016 14.3363C11.8836 14.1103 12.2672 14.0671 12.594 14.2233C12.9181 14.3805 13.125 14.7093 13.125 15.0714V16.0123H14.0625V13.1896C14.0625 12.6695 14.4818 12.2487 15 12.2487H17.8125C18.306 12.2487 18.7097 12.6309 18.7473 13.1161L20.9994 11.3077L18.7473 9.49938C18.7098 9.98454 18.306 10.3668 17.8125 10.3668H15C14.4818 10.3668 14.0625 9.94591 14.0625 9.42588V1.94641C7.26291 2.43222 1.875 8.12547 1.875 15.0714C1.875 22.0173 7.26291 27.7106 14.0625 28.1964V21.6577Z" fill="#3478F6"/>
<path d="M15.9374 1.94641V8.4851H16.8749V7.54413C16.8749 7.18207 17.0818 6.85319 17.4059 6.69607C17.73 6.53894 18.1164 6.583 18.3984 6.80913L23.0859 10.5727C23.3083 10.7519 23.4374 11.0221 23.4374 11.3078C23.4374 11.5936 23.3083 11.8638 23.0859 12.0429L18.3984 15.8065C18.1173 16.0335 17.7327 16.0767 17.4059 15.9196C17.0818 15.7623 16.8749 15.4335 16.8749 15.0714V14.1305H15.9374V16.9533C15.9374 17.4733 15.5181 17.8941 14.9999 17.8941H12.1874C11.6939 17.8941 11.2902 17.5119 11.2526 17.0268L9.00049 18.8351L11.2526 20.6434C11.2901 20.1583 11.6939 19.7761 12.1874 19.7761H14.9999C15.5181 19.7761 15.9374 20.1969 15.9374 20.7169V28.1964C22.737 27.7106 28.1249 22.0173 28.1249 15.0714C28.1249 8.12547 22.737 2.43222 15.9374 1.94641Z" fill="#3478F6"/>
</svg>
