<svg width="30" height="31" viewBox="0 0 30 31" fill="none" xmlns="http://www.w3.org/2000/svg">
<g clip-path="url(#clip0_129_76)">
<path d="M15 13.4822C15.4854 13.4822 15.8789 13.0887 15.8789 12.6033C15.8789 12.1179 15.4854 11.7244 15 11.7244C14.5146 11.7244 14.1211 12.1179 14.1211 12.6033C14.1211 13.0887 14.5146 13.4822 15 13.4822Z" fill="#3478F6"/>
<path d="M15.0001 8.20874C12.5655 8.20874 10.5845 10.1892 10.5845 12.6244C10.5845 14.1654 11.447 16.3175 13.0794 18.847C13.7872 19.9451 14.5021 20.896 15.0001 21.5277C15.4981 20.896 16.213 19.9451 16.9208 18.847C18.5532 16.3175 19.4157 14.1654 19.4157 12.6244C19.4157 10.1892 17.4347 8.20874 15.0001 8.20874ZM15.0001 15.24C13.5464 15.24 12.3634 14.057 12.3634 12.6033C12.3634 11.1496 13.5464 9.96655 15.0001 9.96655C16.4538 9.96655 17.6368 11.1496 17.6368 12.6033C17.6368 14.057 16.4538 15.24 15.0001 15.24Z" fill="#3478F6"/>
<path d="M25.6641 14.4783H27.9785C27.7705 11.3347 26.4469 8.40796 24.198 6.15913C21.9492 3.9103 19.0225 2.58667 15.8789 2.37866V4.69312H14.1211V2.37866C10.9775 2.58667 8.05078 3.9103 5.80195 6.15913C3.55312 8.40796 2.22949 11.3347 2.02148 14.4783H4.33594V16.2361H2.02148C2.22949 19.3796 3.55312 22.3064 5.80195 24.5552C8.05078 26.8041 10.9775 28.1277 14.1211 28.3357V26.0212H15.8789V28.3357C19.0225 28.1277 21.9492 26.8041 24.198 24.5552C26.4469 22.3064 27.7705 19.3796 27.9785 16.2361H25.6641V14.4783ZM18.3855 19.8197C17.0437 21.8968 15.7195 23.4279 15.6639 23.4917L15 24.2564L14.3361 23.4917C14.1111 23.2328 8.82656 17.0951 8.82656 12.6244C8.82656 9.22007 11.5963 6.45093 15 6.45093C18.4037 6.45093 21.1734 9.22007 21.1734 12.6244C21.1734 14.5357 20.2354 16.9568 18.3855 19.8197Z" fill="#3478F6"/>
<path d="M15.8789 0.357178V2.37866C15.5877 2.35933 15.2947 2.34937 15 2.34937C14.7053 2.34937 14.4123 2.35933 14.1211 2.37866V0.357178H15.8789Z" fill="#3478F6"/>
<path d="M1.99219 15.3572C1.99219 15.6519 2.00215 15.9449 2.02148 16.2361H0V14.4783H2.02148C2.00215 14.7695 1.99219 15.0625 1.99219 15.3572Z" fill="#3478F6"/>
<path d="M15.8789 28.3357V30.3572H14.1211V28.3357C14.4123 28.355 14.7053 28.365 15 28.365C15.2947 28.365 15.5877 28.355 15.8789 28.3357Z" fill="#3478F6"/>
<path d="M30 14.4783V16.2361H27.9785C27.9979 15.9449 28.0078 15.6519 28.0078 15.3572C28.0078 15.0625 27.9979 14.7695 27.9785 14.4783H30Z" fill="#3478F6"/>
</g>
<defs>
<clipPath id="clip0_129_76">
<rect width="30" height="30" fill="white" transform="translate(0 0.357178)"/>
</clipPath>
</defs>
</svg>
