<svg width="30" height="31" viewBox="0 0 30 31" fill="none" xmlns="http://www.w3.org/2000/svg">
<path d="M0.9375 27.8303H29.0625V29.7053H0.9375V27.8303Z" fill="#3478F6"/>
<path d="M5.15625 11.8928C4.78329 11.8928 4.4256 12.041 4.16188 12.3047C3.89816 12.5684 3.75 12.9261 3.75 13.2991V25.9553H9.375V13.2991C9.375 12.9261 9.22684 12.5684 8.96312 12.3047C8.6994 12.041 8.34171 11.8928 7.96875 11.8928H5.15625Z" fill="#3478F6"/>
<path d="M13.5938 19.3928C13.2208 19.3928 12.8631 19.541 12.5994 19.8047C12.3357 20.0684 12.1875 20.4261 12.1875 20.7991V25.9553H17.8125V20.7991C17.8125 20.4261 17.6643 20.0684 17.4006 19.8047C17.1369 19.541 16.7792 19.3928 16.4062 19.3928H13.5938Z" fill="#3478F6"/>
<path d="M22.0312 22.2053C21.6583 22.2053 21.3006 22.3535 21.0369 22.6172C20.7732 22.8809 20.625 23.2386 20.625 23.6116V25.9553H26.25V23.6116C26.25 23.2386 26.1018 22.8809 25.8381 22.6172C25.5744 22.3535 25.2167 22.2053 24.8438 22.2053H22.0312Z" fill="#3478F6"/>
<path d="M12.4688 13.8428C12.7804 14.8798 13.347 15.8222 14.1167 16.5837C14.8864 17.3453 15.8348 17.9017 16.875 18.2022C17.4857 18.3709 18.1165 18.456 18.75 18.4553C20.4905 18.4553 22.1597 17.7639 23.3904 16.5332C24.6211 15.3025 25.3125 13.6333 25.3125 11.8928C25.3125 11.6442 25.2138 11.4057 25.038 11.2299C24.8621 11.0541 24.6237 10.9553 24.375 10.9553H21.0938C20.7208 10.9553 20.3631 10.8072 20.0994 10.5435C19.8357 10.2797 19.6875 9.92205 19.6875 9.54909V6.26784C19.6875 6.01919 19.5888 5.78074 19.413 5.60492C19.2371 5.42911 18.9987 5.33034 18.75 5.33034C17.7712 5.3284 16.8044 5.54545 15.9203 5.96559C15.0362 6.38573 14.2573 6.99831 13.6407 7.75846C12.9652 8.60082 12.5054 9.59525 12.3012 10.6555C12.097 11.7158 12.1545 12.8098 12.4688 13.8428Z" fill="#3478F6"/>
<path d="M22.5 9.08032H28.125C28.3736 9.08032 28.6121 8.98155 28.7879 8.80573C28.9637 8.62992 29.0625 8.39146 29.0625 8.14282C29.0625 6.40234 28.3711 4.73314 27.1404 3.50243C25.9097 2.27173 24.2405 1.58032 22.5 1.58032C22.2514 1.58032 22.0129 1.67909 21.8371 1.85491C21.6613 2.03072 21.5625 2.26918 21.5625 2.51782V7.68345C21.5625 8.65845 21.9844 9.08032 22.5 9.08032Z" fill="#3478F6"/>
<path d="M0.9375 1.58032H14.0625V3.45532H0.9375V1.58032Z" fill="#3478F6"/>
<path d="M0.9375 5.33032H9.375V7.20532H0.9375V5.33032Z" fill="#3478F6"/>
</svg>
