<svg width="30" height="31" viewBox="0 0 30 31" fill="none" xmlns="http://www.w3.org/2000/svg">
<g clip-path="url(#clip0_129_94)">
<path d="M18.75 0.928589V8.42859H26.25L18.75 0.928589Z" fill="#3478F6"/>
<path d="M18.75 10.3036C17.7169 10.3036 16.875 9.46171 16.875 8.42859V0.928589H5.625C4.59188 0.928589 3.75 1.77046 3.75 2.80359V29.0536C3.75 30.0886 4.59188 30.9286 5.625 30.9286H24.375C25.41 30.9286 26.25 30.0886 26.25 29.0536V10.3036H18.75ZM11.25 27.1786H7.5V21.5536H11.25V27.1786ZM16.875 27.1786H13.125V17.8036H16.875V27.1786ZM22.5 27.1786H18.75V14.0536H22.5V27.1786Z" fill="#3478F6"/>
</g>
<defs>
<clipPath id="clip0_129_94">
<rect width="30" height="30" fill="white" transform="translate(0 0.928589)"/>
</clipPath>
</defs>
</svg>
