<svg width="30" height="31" viewBox="0 0 30 31" fill="none" xmlns="http://www.w3.org/2000/svg">
<path d="M27.6188 14.0144V19.0488C27.6188 21.8238 25.397 24.0831 22.6407 24.1675V28.3394L18.4688 24.1675H13.2845C11.5407 24.1675 10.0032 23.2956 9.08447 21.9644L11.8032 19.2456H16.2001C20.0626 19.2456 23.2032 16.105 23.2032 12.2519V8.9425C25.697 9.28 27.6188 11.4269 27.6188 14.0144Z" fill="#3478F6"/>
<path d="M16.2 2.08936H7.00312C4.17187 2.08936 1.875 4.38623 1.875 7.21748V12.2519C1.875 15.0269 4.0875 17.2862 6.85313 17.3706V21.5425L11.025 17.3706H16.2C19.0312 17.3706 21.3281 15.0831 21.3281 12.2519V7.21748C21.3281 4.38623 19.0312 2.08936 16.2 2.08936ZM17.8687 11.68L15.1031 11.005V11.2394C15.1031 12.0081 14.475 12.6456 13.6969 12.6456H6.74062C5.9625 12.6456 5.33438 12.0081 5.33438 11.2394V7.55498C5.33438 6.77686 5.9625 6.14873 6.74062 6.14873H13.6969C14.475 6.14873 15.1031 6.77686 15.1031 7.55498V7.77998L17.8687 7.10498V11.68Z" fill="#3478F6"/>
<path d="M7.59179 9.39439C8.10645 9.39439 8.52366 8.97718 8.52366 8.46252C8.52366 7.94785 8.10645 7.53064 7.59179 7.53064C7.07713 7.53064 6.65991 7.94785 6.65991 8.46252C6.65991 8.97718 7.07713 9.39439 7.59179 9.39439Z" fill="#3478F6"/>
</svg>
