<svg width="30" height="31" viewBox="0 0 30 31" fill="none" xmlns="http://www.w3.org/2000/svg">
<path d="M29.1211 25.168C27.6671 25.168 26.4844 23.9852 26.4844 22.5312V13.7422C26.4844 13.2568 26.0908 12.8633 25.6054 12.8633H23.8476C23.3622 12.8633 22.9687 13.2568 22.9687 13.7422V21.6523H20.3096C20.8673 22.3891 21.2109 23.296 21.2109 24.2891C21.2109 24.59 21.1799 24.8838 21.122 25.168H23.4563C24.0653 26.2143 25.1864 26.9258 26.4844 26.9258H29.1211C29.6069 26.9258 30 26.5327 30 26.0469C30 25.5611 29.6069 25.168 29.1211 25.168Z" fill="#3478F6"/>
<path d="M2.63672 26.9258H16.8164C18.2726 26.9258 19.4531 25.7453 19.4531 24.2891C19.4531 22.8328 18.2726 21.6523 16.8164 21.6523H15.8789V19.8945H3.51562V21.6523H2.63672C1.18049 21.6523 0 22.8328 0 24.2891C0 25.7453 1.18049 26.9258 2.63672 26.9258Z" fill="#3478F6"/>
<path d="M15.8789 12.8633V5.83203H16.7578C17.2436 5.83203 17.6367 5.43893 17.6367 4.95312C17.6367 4.46732 17.2436 4.07422 16.7578 4.07422H7.91016C7.42436 4.07422 7.03125 4.46732 7.03125 4.95312C7.03125 5.43893 7.42436 5.83203 7.91016 5.83203H8.78906V12.8633H15.8789Z" fill="#3478F6"/>
<path d="M0.878906 18.1367H18.5742C19.0596 18.1367 19.4531 17.7432 19.4531 17.2578V15.5C19.4531 15.0146 19.0596 14.6211 18.5742 14.6211H7.91016C7.42477 14.6211 7.03125 14.2276 7.03125 13.7422V9.34766H3.51562V6.71094C3.51562 6.22555 3.12211 5.83203 2.63672 5.83203H0.878906C0.393105 5.83203 0 6.22514 0 6.71094C0 7.19674 0.393105 7.58984 0.878906 7.58984H1.75781V9.34766H0.878906C0.393105 9.34766 0 9.74076 0 10.2266V17.2578C0 17.7432 0.393516 18.1367 0.878906 18.1367Z" fill="#3478F6"/>
</svg>
