<svg width="54" height="54" viewBox="0 0 54 54" fill="none" xmlns="http://www.w3.org/2000/svg">
<g clip-path="url(#clip0_129_140)">
<path d="M39.6562 0H14.3438C11.7268 0 9.59766 2.12915 9.59766 4.74609V49.2539C9.59766 51.8708 11.7268 54 14.3438 54H39.6562C42.2732 54 44.4023 51.8708 44.4023 49.2539V4.74609C44.4023 2.12915 42.2732 0 39.6562 0ZM12.7617 46.8055V42.265L41.2383 13.7781V18.2844L33.827 25.6956C33.2107 26.312 33.2086 27.3106 33.8229 27.9294L41.2383 35.3947V39.819L31.5895 30.1702C31.2929 29.8736 30.8904 29.7068 30.471 29.7068C30.4706 29.7068 30.4702 29.7068 30.4698 29.7068C30.0499 29.7072 29.6474 29.8744 29.3508 30.1719L12.7617 46.8055ZM20.1462 30.4022L12.7617 37.7895V23.0177L20.1462 30.4022ZM41.2383 30.9044L37.1794 26.8179L41.2383 22.759V30.9044ZM41.2383 4.74609V9.30267L22.3833 28.1647L16.2088 21.9902L28.7069 9.4926H33.324C34.1974 9.4926 34.906 8.78398 34.906 7.91057V3.16406H39.6562C40.5284 3.16406 41.2383 3.87392 41.2383 4.74609ZM22.2498 3.16406H31.742V6.32854H22.2498V3.16406ZM14.3438 3.16406H19.0857V7.91057C19.0857 8.78398 19.7939 9.4926 20.6678 9.4926H24.2323L13.9717 19.7527L12.7617 18.5431V4.74609C12.7617 3.87392 13.4716 3.16406 14.3438 3.16406ZM13.4728 50.5731L22.0928 41.93L30.9987 50.8359H14.3438C14.022 50.8359 13.7229 50.7387 13.4728 50.5731ZM39.6562 50.8359H35.4733L24.327 39.6896L30.4722 33.5279L41.2383 44.2936V49.2539C41.2383 50.1261 40.5284 50.8359 39.6562 50.8359Z" fill="#FF6B00"/>
</g>
<defs>
<clipPath id="clip0_129_140">
<rect width="54" height="54" fill="white"/>
</clipPath>
</defs>
</svg>
