<svg width="54" height="54" viewBox="0 0 54 54" fill="none" xmlns="http://www.w3.org/2000/svg">
<g clip-path="url(#clip0_129_138)">
<path d="M50.0914 49.025C49.4843 46.2442 46.3172 35.4293 34.1531 31.567C35.4453 30.7542 36.5908 29.7288 37.5385 28.5388H42.2699C45.0125 28.5388 47.2436 26.3075 47.2436 23.5651V16.785C47.2436 15.6357 46.8508 14.5771 46.1937 13.734C39.8511 -4.56208 14.2015 -4.59396 7.83526 13.7342C7.17838 14.5773 6.78554 15.6358 6.78554 16.785V23.5651C6.78554 26.3076 9.01675 28.5388 11.7591 28.5388H16.4907C17.4384 29.7288 18.5839 30.7543 19.876 31.567C7.7166 35.4269 4.5273 46.239 3.91413 49.0152C3.38077 51.3621 5.1485 54 7.95045 54C16.1964 54 38.101 54 46.0787 53.9746C48.8109 53.9745 50.6105 51.4472 50.0914 49.025ZM44.0765 16.785V23.5651C44.0765 24.5612 43.2661 25.3715 42.27 25.3715H39.4222C40.807 22.126 40.807 18.224 39.4222 14.9785H42.27C43.2661 14.9784 44.0765 15.7887 44.0765 16.785ZM14.6071 25.3715H11.7591C10.7631 25.3715 9.95277 24.5611 9.95277 23.5651V16.785C9.95277 15.7887 10.7632 14.9785 11.7591 14.9785H14.6071C13.2223 18.224 13.2223 22.1258 14.6071 25.3715ZM12.1822 11.8111C18.5382 0.242507 35.4946 0.250426 41.8473 11.8111H37.5385C32.3631 5.0776 21.6636 5.08013 16.4907 11.8111H12.1822ZM16.7329 20.1749C16.7329 14.5056 21.3452 9.89327 27.0145 9.89327C34.005 9.75708 39.1702 17.1796 36.682 23.6765H30.4047C28.3068 23.754 28.3065 26.7663 30.4047 26.8438H34.8336C28.7491 34.045 16.7332 29.7155 16.7329 20.1749ZM46.8031 50.4634C46.6252 50.6819 46.3611 50.8073 46.0738 50.8073C38.0959 50.8328 16.1952 50.8328 7.95045 50.8328C7.3662 50.8472 6.87908 50.2598 7.00946 49.6859C11.8958 28.6269 41.8674 28.161 46.9946 49.6896C47.0496 49.9644 46.98 50.2461 46.8031 50.4634Z" fill="#FF6B00"/>
</g>
<defs>
<clipPath id="clip0_129_138">
<rect width="54" height="54" fill="white"/>
</clipPath>
</defs>
</svg>
