<svg width="54" height="54" viewBox="0 0 54 54" fill="none" xmlns="http://www.w3.org/2000/svg">
<path fill-rule="evenodd" clip-rule="evenodd" d="M15.183 32.6924C22.014 32.6924 27.5625 38.2409 27.5625 45.0741C27.5625 46.8269 26.4578 48.3546 24.426 49.4054C22.1828 50.5664 18.6863 51.1874 15.183 51.1874C11.6775 51.1874 8.18102 50.5664 5.93777 49.4054C3.90602 48.3546 2.80127 46.8269 2.80127 45.0741C2.80127 38.2409 8.34977 32.6924 15.183 32.6924ZM15.183 36.0674C10.2128 36.0674 6.17627 40.1039 6.17627 45.0741C6.17627 45.6861 6.77702 46.0394 7.48802 46.4084C9.35102 47.3714 12.2715 47.8124 15.183 47.8124C18.0923 47.8124 21.0128 47.3714 22.8758 46.4084C23.5868 46.0394 24.1875 45.6861 24.1875 45.0741C24.1875 40.1039 20.1533 36.0674 15.183 36.0674Z" fill="#FF6B00"/>
<path fill-rule="evenodd" clip-rule="evenodd" d="M38.817 14.6924C45.6503 14.6924 51.1988 20.2409 51.1988 27.0741C51.1988 28.8269 50.094 30.3546 48.0623 31.4054C45.819 32.5664 42.3225 33.1874 38.817 33.1874C35.3138 33.1874 31.8173 32.5664 29.574 31.4054C27.5423 30.3546 26.4375 28.8269 26.4375 27.0741C26.4375 20.2409 31.986 14.6924 38.817 14.6924ZM38.817 18.0674C33.8468 18.0674 29.8125 22.1039 29.8125 27.0741C29.8125 27.6861 30.4133 28.0394 31.1243 28.4084C32.9873 29.3714 35.9078 29.8124 38.817 29.8124C41.7285 29.8124 44.649 29.3714 46.512 28.4084C47.223 28.0394 47.8237 27.6861 47.8237 27.0741C47.8237 22.1039 43.7873 18.0674 38.817 18.0674Z" fill="#FF6B00"/>
<path fill-rule="evenodd" clip-rule="evenodd" d="M15.183 20.8125C19.3927 20.8125 22.8105 24.2303 22.8105 28.44C22.8105 32.6498 19.3927 36.0675 15.183 36.0675C10.9732 36.0675 7.55322 32.6498 7.55322 28.44C7.55322 24.2303 10.9732 20.8125 15.183 20.8125ZM15.183 24.1875C12.834 24.1875 10.9282 26.0933 10.9282 28.44C10.9282 30.7868 12.834 32.6925 15.183 32.6925C17.5297 32.6925 19.4355 30.7868 19.4355 28.44C19.4355 26.0933 17.5297 24.1875 15.183 24.1875Z" fill="#FF6B00"/>
<path fill-rule="evenodd" clip-rule="evenodd" d="M38.817 2.8125C43.0267 2.8125 46.4467 6.23025 46.4467 10.44C46.4467 14.6497 43.0267 18.0675 38.817 18.0675C34.6072 18.0675 31.1895 14.6497 31.1895 10.44C31.1895 6.23025 34.6072 2.8125 38.817 2.8125ZM38.817 6.1875C36.4702 6.1875 34.5645 8.09325 34.5645 10.44C34.5645 12.7867 36.4702 14.6925 38.817 14.6925C41.166 14.6925 43.0717 12.7867 43.0717 10.44C43.0717 8.09325 41.166 6.1875 38.817 6.1875Z" fill="#FF6B00"/>
<path fill-rule="evenodd" clip-rule="evenodd" d="M47.8237 38.2478C47.8237 37.3163 48.582 36.5625 49.5112 36.5625C50.4428 36.5625 51.1987 37.3207 51.1987 38.2522L51.192 45.0068C51.1875 48.42 48.42 51.1875 45.0045 51.1875H32.625C31.6935 51.1875 30.9375 50.4315 30.9375 49.5C30.9375 48.5685 31.6935 47.8125 32.625 47.8125H45.0045C46.557 47.8125 47.8148 46.5547 47.817 45.0022L47.8237 38.2478Z" fill="#FF6B00"/>
<path fill-rule="evenodd" clip-rule="evenodd" d="M6.1875 15.7522C6.1875 16.6838 5.42925 17.4375 4.49775 17.4375C3.56625 17.4375 2.8125 16.6792 2.8125 15.7478L2.81925 8.99325C2.8215 5.58 5.59125 2.8125 9.00675 2.8125H25.875C26.8065 2.8125 27.5625 3.5685 27.5625 4.5C27.5625 5.4315 26.8065 6.1875 25.875 6.1875H9.00675C7.45425 6.1875 6.1965 7.44525 6.19425 8.99775L6.1875 15.7522Z" fill="#FF6B00"/>
</svg>
