<svg width="20" height="20" viewBox="0 0 20 20" fill="none" xmlns="http://www.w3.org/2000/svg">
<path d="M17 0H3C1.34961 0 0 1.3501 0 3V17C0 18.6499 1.34961 20 3 20H17C18.6504 20 20 18.6499 20 17V3C20 1.3501 18.6504 0 17 0ZM14.46 8.20996L9.45996 13.21C9.25977 13.3999 9.00977 13.5 8.75 13.5C8.49023 13.5 8.24023 13.3999 8.04004 13.21L5.54004 10.71C5.15039 10.3198 5.15039 9.68018 5.54004 9.29004C5.92969 8.8999 6.57031 8.8999 6.95996 9.29004L8.75 11.0898L13.04 6.79004C13.4297 6.3999 14.0703 6.3999 14.46 6.79004C14.8496 7.18018 14.8496 7.81982 14.46 8.20996Z" fill="#EC7C15"/>
</svg>
