<svg width="50" height="50" viewBox="0 0 50 50" fill="none" xmlns="http://www.w3.org/2000/svg">
<g clip-path="url(#clip0_129_322)">
<path d="M41.0568 49.1439C30.3631 50.2853 19.6369 50.2853 8.94317 49.1439C4.6791 48.6889 1.31111 45.3209 0.856017 41.0564C-0.285339 30.3627 -0.285339 19.6369 0.856017 8.94317C1.31111 4.6791 4.6791 1.31111 8.94317 0.856017C19.6369 -0.285339 30.3627 -0.285339 41.0564 0.856017C45.3209 1.31111 48.6889 4.6791 49.1439 8.94317C50.2853 19.6369 50.2853 30.3627 49.1439 41.0564C48.6889 45.3209 45.3212 48.6889 41.0568 49.1439Z" fill="url(#paint0_linear_129_322)"/>
<path d="M46.4245 10.7518C46.021 6.96802 43.0325 3.97921 39.2483 3.57523C29.7589 2.56281 20.2413 2.56281 10.7518 3.57523C6.96802 3.97921 3.97921 6.96802 3.57523 10.7518C2.56281 20.2413 2.56281 29.7589 3.57523 39.248C3.97921 43.0321 6.96802 46.021 10.7518 46.4245C20.2413 47.4374 29.7589 47.4374 39.248 46.4245C43.0321 46.021 46.021 43.0321 46.4245 39.248C47.4374 29.7589 47.4374 20.2413 46.4245 10.7518Z" fill="url(#paint1_linear_129_322)"/>
<path d="M0.749268 40.02C0.7836 40.3656 0.819077 40.7112 0.856079 41.0569C1.31117 45.3209 4.67917 48.6889 8.94361 49.144C19.6373 50.2854 30.3631 50.2854 41.0569 49.144C45.3213 48.6889 48.6889 45.3209 49.144 41.0569C49.181 40.7112 49.2165 40.3656 49.2512 40.02H0.749268Z" fill="url(#paint2_linear_129_322)"/>
<path d="M33.6148 8.32715C29.2584 8.32715 25.7272 11.8588 25.7272 16.2152V22.107H21.4822V29.4018L25.7272 33.2039V49.9977C30.8396 49.9729 35.9517 49.6887 41.0569 49.144C45.3213 48.6889 48.689 45.3209 49.1441 41.0565C49.9932 33.0998 50.2103 25.1255 49.7956 17.1597L40.9631 8.32715H33.6148Z" fill="url(#paint3_linear_129_322)"/>
<path d="M25.7272 49.9977C28.6405 49.9836 31.5534 49.8848 34.4651 49.7017V29.4018H40.2627L40.9631 22.107H34.4651V17.4748C34.4651 16.4517 35.2944 15.6224 36.3175 15.6224H40.9631V8.32715H33.6148C29.2584 8.32715 25.7272 11.8588 25.7272 16.2152V22.107H21.4822V29.4018H25.7272V49.9977Z" fill="white"/>
</g>
<defs>
<linearGradient id="paint0_linear_129_322" x1="16.601" y1="7.0299" x2="29.2474" y2="34.0874" gradientUnits="userSpaceOnUse">
<stop stop-color="#3457A0"/>
<stop offset="1" stop-color="#3B5998"/>
</linearGradient>
<linearGradient id="paint1_linear_129_322" x1="34.4848" y1="31.517" x2="-9.22333" y2="1.48529" gradientUnits="userSpaceOnUse">
<stop stop-color="#3457A0" stop-opacity="0"/>
<stop offset="1" stop-color="#1F3F77"/>
</linearGradient>
<linearGradient id="paint2_linear_129_322" x1="25.0001" y1="41.7845" x2="25.0001" y2="48.5505" gradientUnits="userSpaceOnUse">
<stop stop-color="#3457A0" stop-opacity="0"/>
<stop offset="1" stop-color="#1F3F77"/>
</linearGradient>
<linearGradient id="paint3_linear_129_322" x1="57.4002" y1="41.292" x2="22.6961" y2="23.7929" gradientUnits="userSpaceOnUse">
<stop stop-color="#3457A0" stop-opacity="0"/>
<stop offset="0.3251" stop-color="#2A4C8D" stop-opacity="0.32549"/>
<stop offset="0.7045" stop-color="#22427D" stop-opacity="0.705882"/>
<stop offset="1" stop-color="#1F3F77"/>
</linearGradient>
<clipPath id="clip0_129_322">
<rect width="50" height="50" fill="white"/>
</clipPath>
</defs>
</svg>
