<svg width="39" height="50" viewBox="0 0 39 50" fill="none" xmlns="http://www.w3.org/2000/svg">
<mask id="mask0_211_30" style="mask-type:luminance" maskUnits="userSpaceOnUse" x="0" y="0" width="39" height="50">
<path d="M38.5534 0.847656H0.847656V49.1527H38.5534V0.847656Z" fill="white"/>
</mask>
<g mask="url(#mask0_211_30)">
<path d="M29.3439 1.28205C18.1191 1.94234 7.43286 2.759 6.66832 3.03702C5.67789 3.38455 4.82647 4.14908 4.25306 5.20901L3.74916 6.12994L3.17576 14.4704C2.84561 19.075 2.23746 27.902 1.80306 34.1226C0.830009 48.0233 0.760504 49.1527 0.916885 49.1527C1.21227 49.1527 3.15838 47.9538 4.60059 46.8765C6.65094 45.3474 8.31904 43.5577 8.99669 42.1677C9.53533 41.1077 9.57008 40.8123 10.074 35.9297C11.3077 23.6796 12.7152 12.0899 13.0626 11.2385C13.2191 10.891 13.5318 10.4739 13.7925 10.3002C14.3658 9.93528 18.1712 9.50088 20.3084 9.57037L21.7854 9.62249L21.1946 14.4877L20.6038 19.353L17.424 19.1098C15.6691 18.9882 14.14 18.9186 14.0009 18.9708C13.8446 19.0229 13.6535 20.1697 13.3754 23.0541C13.1496 25.2435 13.0105 27.1548 13.0452 27.2765C13.0975 27.4502 13.9836 27.6066 16.3293 27.8672L19.5265 28.2148L18.4145 38.0669C17.8063 43.5055 17.3545 47.9886 17.4066 48.0407C17.4762 48.1102 18.2407 47.8148 19.1269 47.3804C21.351 46.3031 23.1059 44.9477 24.5829 43.1581C26.1468 41.2641 26.2163 41.0903 26.7375 37.6499C27.6932 31.4293 28.5794 25.2087 30.2301 13.0803L30.8035 8.87537L31.846 8.77105C33.7226 8.57994 35.078 7.65902 36.3812 5.71291C37.163 4.53135 38.223 2.28986 38.4663 1.31681L38.5879 0.847656L37.3195 0.865029C36.607 0.88241 33.0276 1.07354 29.3439 1.28205Z" fill="#1596EC"/>
</g>
</svg>
