<svg width="148" height="59" viewBox="0 0 148 59" fill="none" xmlns="http://www.w3.org/2000/svg">
<path d="M47 41.6391V17H63.6633V21.295H52.321V27.166H62.5574V31.461H52.321V41.6391H47Z" fill="black"/>
<path d="M72.379 17V41.6391H67.1441V17H72.379Z" fill="black"/>
<path d="M85.1745 42C83.2329 42 81.5617 41.615 80.1608 40.845C78.7681 40.0671 77.6949 38.9682 76.9412 37.5486C76.1875 36.1209 75.8106 34.4326 75.8106 32.4836C75.8106 30.5828 76.1875 28.9145 76.9412 27.4788C77.6949 26.0432 78.7558 24.9243 80.1239 24.1222C81.5002 23.3202 83.1141 22.9192 84.9656 22.9192C86.2109 22.9192 87.3701 23.1157 88.4433 23.5087C89.5247 23.8936 90.4668 24.4751 91.2697 25.2531C92.0807 26.0311 92.7115 27.0096 93.1621 28.1886C93.6127 29.3596 93.838 30.7312 93.838 32.3032V33.7108H77.8997V30.5346H88.9103C88.9103 29.7968 88.7464 29.1431 88.4187 28.5736C88.091 28.0042 87.6363 27.559 87.0547 27.2382C86.4812 26.9094 85.8135 26.7449 85.0516 26.7449C84.257 26.7449 83.5524 26.9254 82.938 27.2863C82.3318 27.6392 81.8566 28.1165 81.5125 28.718C81.1684 29.3115 80.9923 29.9732 80.9841 30.7031V33.7228C80.9841 34.6372 81.1562 35.4272 81.5002 36.0929C81.8525 36.7586 82.3482 37.2719 82.9872 37.6328C83.6262 37.9937 84.384 38.1742 85.2606 38.1742C85.8422 38.1742 86.3747 38.094 86.8581 37.9336C87.3414 37.7732 87.7551 37.5326 88.0992 37.2117C88.4433 36.8909 88.7055 36.4979 88.8857 36.0327L93.7274 36.3455C93.4816 37.4844 92.9778 38.479 92.2159 39.3292C91.4622 40.1713 90.4873 40.829 89.2912 41.3022C88.1033 41.7674 86.7311 42 85.1745 42Z" fill="black"/>
<path d="M105.856 42C103.915 42 102.243 41.615 100.842 40.845C99.4498 40.0671 98.3766 38.9682 97.6229 37.5486C96.8692 36.1209 96.4923 34.4326 96.4923 32.4836C96.4923 30.5828 96.8692 28.9145 97.6229 27.4788C98.3766 26.0432 99.4375 24.9243 100.806 24.1222C102.182 23.3202 103.796 22.9192 105.647 22.9192C106.893 22.9192 108.052 23.1157 109.125 23.5087C110.206 23.8936 111.149 24.4751 111.951 25.2531C112.762 26.0311 113.393 27.0096 113.844 28.1886C114.294 29.3596 114.52 30.7312 114.52 32.3032V33.7108H98.5814V30.5346H109.592C109.592 29.7968 109.428 29.1431 109.1 28.5736C108.773 28.0042 108.318 27.559 107.736 27.2382C107.163 26.9094 106.495 26.7449 105.733 26.7449C104.939 26.7449 104.234 26.9254 103.62 27.2863C103.013 27.6392 102.538 28.1165 102.194 28.718C101.85 29.3115 101.674 29.9732 101.666 30.7031V33.7228C101.666 34.6372 101.838 35.4272 102.182 36.0929C102.534 36.7586 103.03 37.2719 103.669 37.6328C104.308 37.9937 105.066 38.1742 105.942 38.1742C106.524 38.1742 107.056 38.094 107.54 37.9336C108.023 37.7732 108.437 37.5326 108.781 37.2117C109.125 36.8909 109.387 36.4979 109.567 36.0327L114.409 36.3455C114.163 37.4844 113.66 38.479 112.898 39.3292C112.144 40.1713 111.169 40.829 109.973 41.3022C108.785 41.7674 107.413 42 105.856 42Z" fill="black"/>
<path d="M127.976 23.1598V27.0096H116.609V23.1598H127.976ZM119.189 18.7324H124.424V35.9605C124.424 36.4338 124.498 36.8027 124.646 37.0674C124.793 37.324 124.998 37.5045 125.26 37.6088C125.53 37.713 125.842 37.7652 126.194 37.7652C126.44 37.7652 126.685 37.7451 126.931 37.705C127.177 37.6569 127.365 37.6208 127.496 37.5967L128.32 41.4105C128.058 41.4907 127.689 41.5829 127.214 41.6872C126.739 41.7995 126.161 41.8677 125.481 41.8917C124.22 41.9398 123.114 41.7754 122.163 41.3985C121.221 41.0215 120.488 40.436 119.964 39.642C119.439 38.8479 119.181 37.8454 119.189 36.6343V18.7324Z" fill="black"/>
<path d="M131.89 41.6391V17H137.211V37.3441H148V41.6391H131.89Z" fill="black"/>
<g clip-path="url(#clip0_44_467)">
<path d="M34.6259 1.51259C21.3806 2.29173 8.77088 3.25539 7.86872 3.58345C6.70002 3.99353 5.69534 4.89568 5.01872 6.1464L4.42412 7.23309L3.7475 17.0748C3.35793 22.5083 2.64031 32.9241 2.12772 40.2644C0.979516 56.6673 0.897501 58 1.08203 58C1.43059 58 3.727 56.5853 5.4288 55.314C7.84822 53.5097 9.81657 51.3978 10.6162 49.7576C11.2518 48.5068 11.2928 48.1583 11.8874 42.3968C13.3432 27.9417 15.004 14.2658 15.414 13.2612C15.5986 12.8511 15.9676 12.359 16.2752 12.154C16.9518 11.7234 21.4421 11.2108 23.964 11.2928L25.7069 11.3543L25.0097 17.0953L24.3126 22.8363L20.5604 22.5493C18.4896 22.4058 16.6853 22.3237 16.5212 22.3853C16.3367 22.4468 16.1112 23.8 15.7831 27.2036C15.5166 29.7871 15.3525 32.0424 15.3935 32.186C15.4551 32.391 16.5007 32.5755 19.2687 32.8831L23.0414 33.2932L21.7292 44.9187C21.0115 51.3363 20.4784 56.6263 20.5399 56.6878C20.622 56.7698 21.5241 56.4212 22.5698 55.9086C25.1943 54.6374 27.2651 53.0381 29.0079 50.9263C30.8533 48.6914 30.9353 48.4863 31.5504 44.4266C32.6781 37.0863 33.7238 29.746 35.6716 15.4345L36.3482 10.4727L37.5784 10.3496C39.7928 10.1241 41.3921 9.03741 42.9299 6.741C43.8525 5.34676 45.1033 2.7018 45.3903 1.5536L45.5338 1L44.0371 1.0205C43.1964 1.04101 38.9727 1.26654 34.6259 1.51259Z" fill="#1596EC"/>
</g>
<defs>
<clipPath id="clip0_44_467">
<rect width="44.4928" height="57" fill="white" transform="translate(1 1)"/>
</clipPath>
</defs>
</svg>
