<svg width="126" height="50" viewBox="0 0 126 50" fill="none" xmlns="http://www.w3.org/2000/svg">
<g clip-path="url(#clip0_211_19)">
<path d="M39.8301 35.2873V14.4067H53.9515V18.0466H44.3394V23.022H53.0143V26.6618H44.3394V35.2873H39.8301Z" fill="#01121D"/>
<path d="M61.3377 14.4067V35.2873H56.9014V14.4067H61.3377Z" fill="#01121D"/>
<path d="M72.1816 35.593C70.5362 35.593 69.1199 35.2668 67.9327 34.6142C66.7524 33.955 65.843 33.0237 65.2042 31.8206C64.5655 30.6107 64.2461 29.18 64.2461 27.5283C64.2461 25.9174 64.5655 24.5036 65.2042 23.2869C65.843 22.0703 66.742 21.1221 67.9014 20.4423C69.0678 19.7627 70.4355 19.4229 72.0046 19.4229C73.0599 19.4229 74.0423 19.5894 74.9518 19.9224C75.8682 20.2486 76.6666 20.7414 77.347 21.4007C78.0343 22.0601 78.5689 22.8893 78.9508 23.8884C79.3326 24.8808 79.5235 26.0432 79.5235 27.3754V28.5683H66.0165V25.8766H75.3475C75.3475 25.2513 75.2086 24.6973 74.9309 24.2147C74.6532 23.7322 74.2679 23.3549 73.775 23.083C73.289 22.8044 72.7231 22.665 72.0774 22.665C71.4041 22.665 70.8069 22.8179 70.2863 23.1238C69.7725 23.4229 69.3698 23.8273 69.0782 24.3371C68.7866 24.8401 68.6374 25.4008 68.6304 26.0194V28.5784C68.6304 29.3534 68.7763 30.0229 69.0678 30.587C69.3663 31.1512 69.7864 31.5862 70.328 31.892C70.8695 32.1979 71.5117 32.3508 72.2546 32.3508C72.7474 32.3508 73.1987 32.2829 73.6084 32.1469C74.018 32.011 74.3685 31.8071 74.6602 31.5351C74.9518 31.2633 75.174 30.9302 75.3267 30.536L79.4298 30.8011C79.2215 31.7662 78.7946 32.6091 78.1489 33.3296C77.5102 34.0433 76.684 34.6006 75.6703 35.0017C74.6636 35.3959 73.5008 35.593 72.1816 35.593Z" fill="#01121D"/>
<path d="M89.7088 35.593C88.0639 35.593 86.6469 35.2668 85.4596 34.6142C84.2798 33.955 83.3703 33.0237 82.7316 31.8206C82.0928 30.6107 81.7734 29.18 81.7734 27.5283C81.7734 25.9174 82.0928 24.5036 82.7316 23.2869C83.3703 22.0703 84.2694 21.1221 85.4291 20.4423C86.5952 19.7627 87.963 19.4229 89.5317 19.4229C90.5876 19.4229 91.5698 19.5894 92.4791 19.9224C93.3952 20.2486 94.1944 20.7414 94.874 21.4007C95.5613 22.0601 96.0961 22.8893 96.4783 23.8884C96.8596 24.8808 97.0511 26.0432 97.0511 27.3754V28.5683H83.5439V25.8766H92.8749C92.8749 25.2513 92.7359 24.6973 92.4579 24.2147C92.1808 23.7322 91.7952 23.3549 91.302 23.083C90.8164 22.8044 90.2503 22.665 89.6045 22.665C88.9317 22.665 88.3342 22.8179 87.8139 23.1238C87.2995 23.4229 86.8969 23.8273 86.6054 24.3371C86.3139 24.8401 86.1647 25.4008 86.1579 26.0194V28.5784C86.1579 29.3534 86.3037 30.0229 86.5952 30.587C86.8935 31.1512 87.3139 31.5862 87.8554 31.892C88.3969 32.1979 89.0393 32.3508 89.7817 32.3508C90.2749 32.3508 90.7257 32.2829 91.1359 32.1469C91.5452 32.011 91.8961 31.8071 92.1876 31.5351C92.4791 31.2633 92.7011 30.9302 92.8537 30.536L96.9571 30.8011C96.7486 31.7662 96.3223 32.6091 95.6766 33.3296C95.0376 34.0433 94.2113 34.6006 93.1978 35.0017C92.191 35.3959 91.0283 35.593 89.7088 35.593Z" fill="#01121D"/>
<path d="M108.454 19.627V22.8896H98.8213V19.627H108.454ZM101.008 15.875H105.444V30.4751C105.444 30.8762 105.507 31.1888 105.632 31.4131C105.757 31.6306 105.931 31.7836 106.153 31.8719C106.381 31.9603 106.646 32.0045 106.944 32.0045C107.153 32.0045 107.36 31.9875 107.569 31.9535C107.777 31.9127 107.937 31.8821 108.048 31.8617L108.746 35.0937C108.524 35.1617 108.211 35.2398 107.809 35.3282C107.406 35.4234 106.916 35.4812 106.34 35.5015C105.271 35.5423 104.334 35.403 103.528 35.0836C102.73 34.7641 102.109 34.2679 101.665 33.595C101.22 32.922 101.001 32.0725 101.008 31.0461V15.875Z" fill="#01121D"/>
<path d="M111.771 35.2873V14.4067H116.281V31.6475H125.424V35.2873H111.771Z" fill="#01121D"/>
<mask id="mask0_211_19" style="mask-type:luminance" maskUnits="userSpaceOnUse" x="0" y="0" width="39" height="50">
<path d="M38.5534 0.847656H0.847656V49.1527H38.5534V0.847656Z" fill="white"/>
</mask>
<g mask="url(#mask0_211_19)">
<path d="M29.3439 1.28205C18.1191 1.94234 7.43286 2.759 6.66832 3.03702C5.67789 3.38455 4.82647 4.14908 4.25306 5.20901L3.74916 6.12994L3.17576 14.4704C2.84561 19.075 2.23746 27.902 1.80306 34.1226C0.830009 48.0233 0.760504 49.1527 0.916885 49.1527C1.21227 49.1527 3.15838 47.9538 4.60059 46.8765C6.65094 45.3474 8.31904 43.5577 8.99669 42.1677C9.53533 41.1077 9.57008 40.8123 10.074 35.9297C11.3077 23.6796 12.7152 12.0899 13.0626 11.2385C13.2191 10.891 13.5318 10.4739 13.7925 10.3002C14.3658 9.93528 18.1712 9.50088 20.3084 9.57037L21.7854 9.62249L21.1946 14.4877L20.6038 19.353L17.424 19.1098C15.6691 18.9882 14.14 18.9186 14.0009 18.9708C13.8446 19.0229 13.6535 20.1697 13.3754 23.0541C13.1496 25.2435 13.0105 27.1548 13.0452 27.2765C13.0975 27.4502 13.9836 27.6066 16.3293 27.8672L19.5265 28.2148L18.4145 38.0669C17.8063 43.5055 17.3545 47.9886 17.4066 48.0407C17.4762 48.1102 18.2407 47.8148 19.1269 47.3804C21.351 46.3031 23.1059 44.9477 24.5829 43.1581C26.1468 41.2641 26.2163 41.0903 26.7375 37.6499C27.6932 31.4293 28.5794 25.2087 30.2301 13.0803L30.8035 8.87537L31.846 8.77105C33.7226 8.57994 35.078 7.65902 36.3812 5.71291C37.163 4.53135 38.223 2.28986 38.4663 1.31681L38.5879 0.847656L37.3195 0.865029C36.607 0.88241 33.0276 1.07354 29.3439 1.28205Z" fill="#1596EC"/>
</g>
</g>
<defs>
<clipPath id="clip0_211_19">
<rect width="125.424" height="50" fill="white"/>
</clipPath>
</defs>
</svg>
