<?xml version="1.0" encoding="utf-8"?><svg viewBox="0 0 54 54" xmlns="http://www.w3.org/2000/svg" xmlns:xlink="http://www.w3.org/1999/xlink"><style>:root>svg{display:none}:root>svg:target{display:block}</style><svg viewBox="0 0 35 35" id="machine-icon1" xmlns="http://www.w3.org/2000/svg"><path d="M35 13.398a4.106 4.106 0 00-4.102-4.101H24.61V7.076l-.767-.375c-.24-.117-5.946-2.873-11.537-2.873-5.591 0-11.298 2.756-11.538 2.873L0 7.076v9.91l.767.375c.24.118 5.947 2.873 11.538 2.873 3.664 0 7.378-1.183 9.57-2.032v2.032H0v8.203h2.97a4.108 4.108 0 003.866 2.735 4.108 4.108 0 003.866-2.735h3.205a4.108 4.108 0 003.866 2.735 4.108 4.108 0 003.867-2.735h2.658a4.108 4.108 0 003.866 2.735 4.108 4.108 0 003.867-2.735H35V13.399zm-2.734 0V17.5H29.53v-5.469h1.367a1.37 1.37 0 011.368 1.367zM2.734 8.814c1.46-.622 4.794-1.898 8.204-2.19v10.814c-3.402-.293-6.743-1.569-8.204-2.19V8.813zm10.938 8.625V6.624c3.402.293 6.742 1.57 8.203 2.191v6.433c-1.46.623-4.793 1.898-8.203 2.19zM6.836 28.437a1.369 1.369 0 01-1.367-1.367 1.368 1.368 0 012.734 0c0 .754-.613 1.367-1.367 1.367zm10.937 0a1.369 1.369 0 01-1.367-1.367c0-.754.614-1.367 1.367-1.367.754 0 1.368.613 1.368 1.367s-.614 1.367-1.368 1.367zm10.391 0a1.369 1.369 0 01-1.367-1.367 1.368 1.368 0 012.734 0c0 .754-.613 1.367-1.367 1.367zm3.867-2.734a4.108 4.108 0 00-3.867-2.734 4.108 4.108 0 00-3.866 2.734H21.64a4.108 4.108 0 00-3.867-2.734 4.108 4.108 0 00-3.866 2.734h-3.205a4.108 4.108 0 00-3.866-2.734 4.108 4.108 0 00-3.866 2.734h-.236V22.97H24.61V12.03h2.188v8.203h5.469v5.47h-.235z"/></svg><svg viewBox="0 0 35 35" id="machine-icon2" xmlns="http://www.w3.org/2000/svg"><g clip-path="url(#ba)"><path d="M24.1 2.734A4.108 4.108 0 0020.235 0a4.08 4.08 0 00-3.663 2.256l-5.69 10.869H9.57a4.106 4.106 0 00-4.102 4.102v1.367H0v4.101c0 1.253.565 2.376 1.453 3.129A5.447 5.447 0 000 29.53 5.475 5.475 0 005.469 35h18.867a5.475 5.475 0 005.469-5.469 5.475 5.475 0 00-5.47-5.468h-2.733v-6.836a4.1 4.1 0 00-1.861-3.433l4.163-7.86c.076-.15.14-.306.197-.465h8.165v10.39h-8.203v1.368a6.844 6.844 0 006.835 6.835H35V2.735H24.1zm.236 24.063a2.737 2.737 0 012.734 2.734 2.737 2.737 0 01-2.734 2.735H5.469a2.737 2.737 0 01-2.735-2.735 2.737 2.737 0 012.735-2.734h18.867zM4.102 24.062a1.369 1.369 0 01-1.368-1.367v-1.367h5.47v-4.101c0-.754.612-1.368 1.366-1.368h7.93a1.37 1.37 0 011.367 1.368v1.367h-6.836v2.734h6.836v2.735H4.102zM21.465 4.7L17 13.125h-3.034l5.043-9.633A1.369 1.369 0 0121.464 4.7zm10.8 16.63h-1.367a4.109 4.109 0 01-3.867-2.735h5.235v2.734z"/></g><defs><clipPath id="ba"><path d="M0 0h35v35H0z"/></clipPath></defs></svg><svg viewBox="0 0 35 35" id="machine-icon3" xmlns="http://www.w3.org/2000/svg"><g clip-path="url(#ca)"><path d="M35 20.671a5.503 5.503 0 00-1.104-3.295l-3.82-5.062a4.122 4.122 0 00-3.274-1.63h-2.74V7.942a4.1 4.1 0 00-4.101-4.094h-2.373l2.794 2.794c.548.178.946.694.946 1.3v19.353h-8.233a4.108 4.108 0 00-3.866-2.735 4.108 4.108 0 00-3.867 2.735h-1.26a1.369 1.369 0 01-1.368-1.367V7.942c0-.636.438-1.17 1.027-1.322l2.772-2.772H4.102C1.84 3.848 0 4.655 0 6.917v18.669c0 2.261 1.84 4.443 4.102 4.443h1.26a4.108 4.108 0 003.867 2.735 4.108 4.108 0 003.866-2.735h8.468a4.108 4.108 0 003.867 2.735 4.108 4.108 0 003.866-2.735H35v-9.358zm-8.198-7.253c.426 0 .834.203 1.091.543l3.46 4.584h-7.29v-5.127h2.739zM9.229 30.029a1.369 1.369 0 01-1.368-1.367 1.369 1.369 0 012.734 0c0 .754-.613 1.367-1.366 1.367zm16.2 0a1.369 1.369 0 01-1.366-1.367 1.368 1.368 0 012.734 0c0 .754-.614 1.367-1.367 1.367zm3.867-2.734a4.108 4.108 0 00-5.233-2.5V21.28h8.203v6.016h-2.97zm-18.564-7.998V7.383l-2.9 2.9-1.934-1.934 6.162-6.162 6.163 6.162-1.934 1.934-2.822-2.822v11.836h-2.735z"/></g><defs><clipPath id="ca"><path d="M0 0h35v35H0z"/></clipPath></defs></svg><svg viewBox="0 0 35 35" id="machine-icon4" xmlns="http://www.w3.org/2000/svg"><g clip-path="url(#da)"><path d="M24.771 10.117v12.13a4.108 4.108 0 00-2.734 3.866 4.106 4.106 0 004.101 4.102 4.106 4.106 0 004.102-4.102 4.108 4.108 0 00-2.734-3.866v-12.13H24.77zm1.367 17.363a1.369 1.369 0 01-1.367-1.367 1.37 1.37 0 011.367-1.367 1.37 1.37 0 011.368 1.367 1.37 1.37 0 01-1.368 1.367zm8.887-1.367c0 4.9-3.986 8.887-8.887 8.887-4.9 0-8.886-3.986-8.886-8.887 0-1.238.25-2.438.744-3.565l2.504 1.098a6.16 6.16 0 005.638 8.62 6.16 6.16 0 006.153-6.153 6.137 6.137 0 00-2.238-4.746l-.497-.41V6.152a3.417 3.417 0 00-5.638-2.599l-1.777-2.078A6.154 6.154 0 0126.138 0a6.16 6.16 0 016.153 6.152V19.7a8.858 8.858 0 012.734 6.413zM12.74 14.106v4.289l3.046 3.045-1.934 1.934-2.48-2.48-2.479 2.48L6.96 21.44l3.046-3.046v-4.288L6.31 16.283l-1.077 4.171-2.648-.684.878-3.395-3.396-.877.684-2.648 4.17 1.078 3.758-2.214L4.923 9.5l-4.17 1.077L.067 7.93l3.396-.877-.878-3.396 2.648-.684L6.31 7.144l3.695 2.177V5.033L6.96 1.987 8.894.054l2.479 2.48 2.48-2.48 1.933 1.933-3.046 3.046v4.288l3.694-2.177 1.078-4.17 2.648.684-.343 1.323-.535 2.072 3.395.877-.684 2.648-4.17-1.078-3.757 2.214 3.757 2.214 4.17-1.078.684 2.648-3.395.877.878 3.395-2.648.684-1.078-4.17-3.694-2.178z"/></g><defs><clipPath id="da"><path d="M0 0h35v35H0z"/></clipPath></defs></svg><svg viewBox="0 0 35 35" id="machine-icon5" xmlns="http://www.w3.org/2000/svg"><g clip-path="url(#ea)"><path d="M23.436 12.97l3.867-3.866L25.37 7.17l.772-.772a4.075 4.075 0 012.9-1.201h3.77V2.461h-3.77a6.791 6.791 0 00-4.833 2.002l-.773.773-1.933-1.934-4.033 4.033a4.108 4.108 0 00-4.668.8l-11.6 11.602a4.1 4.1 0 000 5.8l.967.967L0 28.658l1.95 1.934 2.152-2.153 2.9 2.9a4.107 4.107 0 005.801 0l1.13-1.131a4.102 4.102 0 004.67-.803 13.015 13.015 0 003.128-5.062l.967-2.9 1.705-1.705c1.6-1.6 1.6-4.201 0-5.8l-.966-.967zm0-3.866l-1.933 1.933-1.933-1.933 1.933-1.934 1.933 1.934zM16.67 27.472a1.366 1.366 0 01-1.933 0l-1.934-1.934a1.366 1.366 0 010-1.933l.967-.967 1.934 1.934 1.933-1.934-1.933-1.933.966-.967a1.366 1.366 0 011.934 0l1.336 1.336-.802 2.405a10.265 10.265 0 01-2.468 3.993zm5.8-9.668l-.966.967-.967-.967a4.1 4.1 0 00-5.8 0l-3.867 3.867a4.1 4.1 0 000 5.8l.966.968-.965.966a1.37 1.37 0 01-1.934 0l-5.8-5.8a1.366 1.366 0 010-1.934l11.6-11.6a1.369 1.369 0 011.933 0l5.8 5.8c.534.533.534 1.4 0 1.933zm12.013-2.314l-3.585-6.182-3.585 6.183a4.295 4.295 0 00-.516 2.01 4.106 4.106 0 004.101 4.102A4.106 4.106 0 0035 17.501c0-.682-.179-1.377-.517-2.01zm-3.585 3.379a1.369 1.369 0 01-1.367-1.368c0-.232.062-.469.185-.704l1.182-2.04 1.183 2.04c.122.235.185.472.185.704a1.37 1.37 0 01-1.368 1.368z"/></g><defs><clipPath id="ea"><path d="M0 0h35v35H0z"/></clipPath></defs></svg><svg viewBox="0 0 20 20" id="mail" xmlns="http://www.w3.org/2000/svg"><path d="M2.5 2.5h15c.46 0 .833.373.833.833v13.334c0 .46-.373.833-.833.833h-15a.833.833 0 01-.833-.833V3.333c0-.46.373-.833.833-.833zm7.55 7.236L4.707 5.198l-1.079 1.27 6.434 5.463 6.318-5.468-1.09-1.26-5.238 4.533z"/></svg><svg viewBox="0 0 20 20" id="org" xmlns="http://www.w3.org/2000/svg"><path d="M17.667 17h1.666v1.667H1V17h1.667V2.833c0-.46.373-.833.833-.833h13.333c.46 0 .834.373.834.833V17zM6.833 9.5v1.667h2.5V9.5h-2.5zm0-3.333v1.666h2.5V6.167h-2.5zm0 6.666V14.5h2.5v-1.667h-2.5zm4.167 0V14.5h2.5v-1.667H11zM11 9.5v1.667h2.5V9.5H11zm0-3.333v1.666h2.5V6.167H11z"/></svg><svg viewBox="0 0 20 20" id="phone" xmlns="http://www.w3.org/2000/svg"><g clip-path="url(#ha)"><path fill-rule="evenodd" clip-rule="evenodd" d="M18.715 17.177l-1.275 1.275-.03.019c-.67.42-1.502.63-2.447.63-.896 0-1.893-.189-2.953-.567-2.144-.766-4.396-2.259-6.34-4.204-1.945-1.944-3.438-4.196-4.204-6.34-.777-2.177-.755-4.095.063-5.4l.019-.03 1.275-1.275c.249-.25.58-.386.934-.386.354 0 .686.137.934.386l3.062 3.06c.248.25.385.582.385.935 0 .354-.137.686-.385.934L6.537 7.43c-.206.418-.161 1.05.128 1.787.32.816.914 1.684 1.674 2.444.76.76 1.628 1.355 2.444 1.674.737.289 1.369.334 1.787.128l1.215-1.216c.25-.249.581-.385.935-.385.354 0 .685.136.934.385l3.061 3.061a1.323 1.323 0 010 1.869z"/></g><defs><clipPath id="ha"><path d="M0 0h20v20H0z"/></clipPath></defs></svg><svg viewBox="0 0 30 31" id="tab1" xmlns="http://www.w3.org/2000/svg"><path fill-rule="evenodd" clip-rule="evenodd" d="M11.09 6.774h16.655l-9.892 6.781-6.728-4.612a2.963 2.963 0 00-.034-2.169zM6.736 10.71l2.427-1.478c.72-.439.96-1.375.538-2.105L7.51 3.331a1.504 1.504 0 00-1.004-.739c-.439-.1-.854-.02-1.224.236L1.284 5.58c-1.902 6.703 6.647 21.216 13.204 22.87l4.381-2.086c.406-.193.683-.513.817-.942.133-.43.086-.85-.138-1.239l-2.192-3.796a1.556 1.556 0 00-2.092-.587l-2.494 1.363c-2.466-2.193-5.369-7.22-6.035-10.453zm22.22-3.064l-10.706 7.34a.702.702 0 01-.805-.01l-7.108-4.872a2.96 2.96 0 01-.442.33l-1.536.934c.807 2.603 2.803 6.06 4.654 8.06l1.577-.862a2.963 2.963 0 013.985 1.118l1.359 2.354h7.916a1.14 1.14 0 001.137-1.137V7.911c0-.091-.011-.18-.031-.265z"/></svg><svg viewBox="0 0 30 31" id="tab2" xmlns="http://www.w3.org/2000/svg"><g clip-path="url(#ja)"><path d="M12.5 30.786a4.695 4.695 0 004.593-3.75H7.907a4.695 4.695 0 004.593 3.75zm9.47-11.88c-.033 0-.063.005-.095.005-5.514 0-10-4.486-10-10 0-2.167.7-4.168 1.875-5.808V2.036a1.25 1.25 0 10-2.5 0v1.35c-4.234.61-7.5 4.251-7.5 8.65v3.485a8.382 8.382 0 01-2.985 6.416A2.184 2.184 0 000 23.598a2.19 2.19 0 002.187 2.188h20.625A2.19 2.19 0 0025 23.598a2.19 2.19 0 00-.777-1.67 8.387 8.387 0 01-2.253-3.022z"/><path d="M21.875.786c-4.48 0-8.125 3.645-8.125 8.125s3.645 8.125 8.125 8.125S30 13.39 30 8.91 26.355.786 21.875.786zm1.25 10.937a.938.938 0 01-1.875 0V7.661h-.625a.938.938 0 010-1.875h1.563c.517 0 .937.42.937.937v5z"/></g><defs><clipPath id="ja"><path transform="translate(0 .786)" d="M0 0h30v30H0z"/></clipPath></defs></svg><svg viewBox="0 0 30 31" id="tab3" xmlns="http://www.w3.org/2000/svg"><path d="M14.063 21.658h-.938v.94a.938.938 0 01-1.523.735L6.914 19.57a.943.943 0 010-1.47l4.688-3.764a.936.936 0 011.523.735v.941h.938V13.19c0-.52.419-.941.937-.941h2.813c.493 0 .897.382.934.867L21 11.308l-2.252-1.809a.939.939 0 01-.934.868H15a.939.939 0 01-.938-.941v-7.48c-6.8.486-12.187 6.18-12.187 13.125 0 6.946 5.388 12.64 12.188 13.125v-6.538z"/><path d="M15.937 1.946v6.54h.938v-.942a.935.935 0 011.523-.735l4.688 3.764a.944.944 0 010 1.47l-4.688 3.764a.932.932 0 01-.992.113.943.943 0 01-.531-.849v-.94h-.938v2.822c0 .52-.419.941-.937.941h-2.813a.939.939 0 01-.934-.867L9 18.835l2.253 1.808a.939.939 0 01.934-.867H15c.518 0 .937.42.937.94v7.48c6.8-.485 12.188-6.179 12.188-13.125S22.737 2.432 15.937 1.946z"/></svg><svg viewBox="0 0 30 31" id="tab4" xmlns="http://www.w3.org/2000/svg"><g clip-path="url(#la)"><path d="M15 13.482a.879.879 0 100-1.758.879.879 0 000 1.758z"/><path d="M15 8.209a4.42 4.42 0 00-4.415 4.415c0 1.541.862 3.693 2.494 6.223A35.41 35.41 0 0015 21.527a35.41 35.41 0 001.92-2.68c1.633-2.53 2.496-4.682 2.496-6.223A4.42 4.42 0 0015 8.21zm0 7.031a2.64 2.64 0 01-2.637-2.637A2.64 2.64 0 0115 9.967a2.64 2.64 0 012.637 2.636A2.64 2.64 0 0115 15.24z"/><path d="M25.664 14.478h2.314a12.91 12.91 0 00-3.78-8.319 12.91 12.91 0 00-8.32-3.78v2.314h-1.757V2.38a12.91 12.91 0 00-8.32 3.78 12.91 12.91 0 00-3.78 8.32h2.315v1.757H2.02a12.91 12.91 0 003.781 8.32 12.909 12.909 0 008.32 3.78V26.02h1.757v2.315a12.909 12.909 0 008.319-3.78 12.91 12.91 0 003.78-8.32h-2.314v-1.758zm-7.279 5.342a35.681 35.681 0 01-2.721 3.672l-.664.764-.664-.764c-.225-.26-5.51-6.397-5.51-10.868A6.18 6.18 0 0115 6.451a6.18 6.18 0 016.173 6.173c0 1.912-.938 4.333-2.787 7.196z"/><path d="M15.879.357V2.38a13.266 13.266 0 00-1.758 0V.357h1.758zm-13.887 15c0 .295.01.588.03.88H0v-1.759h2.021c-.019.292-.029.585-.029.88zm13.887 12.979v2.021H14.12v-2.021a13.287 13.287 0 001.758 0zM30 14.478v1.758h-2.021a13.219 13.219 0 000-1.758H30z"/></g><defs><clipPath id="la"><path transform="translate(0 .357)" d="M0 0h30v30H0z"/></clipPath></defs></svg><svg viewBox="0 0 30 31" id="tab5" xmlns="http://www.w3.org/2000/svg"><path d="M.938 27.83h28.125v1.875H.938V27.83zm4.218-15.937a1.406 1.406 0 00-1.406 1.406v12.656h5.625V13.3a1.406 1.406 0 00-1.406-1.406H5.156zm8.438 7.5a1.406 1.406 0 00-1.406 1.406v5.156h5.624V20.8a1.406 1.406 0 00-1.406-1.406h-2.812zm8.437 2.812a1.406 1.406 0 00-1.406 1.407v2.343h5.625v-2.343a1.406 1.406 0 00-1.406-1.407H22.03zm-9.562-8.362a6.478 6.478 0 004.406 4.36c.61.168 1.241.253 1.875.252a6.563 6.563 0 006.563-6.562.937.937 0 00-.938-.938h-3.281a1.406 1.406 0 01-1.407-1.406V6.268a.937.937 0 00-.937-.938 6.562 6.562 0 00-5.11 2.428 6.637 6.637 0 00-1.171 6.085z"/><path d="M22.5 9.08h5.625a.937.937 0 00.938-.937A6.563 6.563 0 0022.5 1.58a.937.937 0 00-.938.938v5.165c0 .975.422 1.397.938 1.397zM.938 1.58h13.124v1.875H.938V1.58zm0 3.75h8.437v1.875H.937V5.33z"/></svg><svg viewBox="0 0 30 31" id="tab6" xmlns="http://www.w3.org/2000/svg"><g clip-path="url(#na)"><path d="M18.75.929v7.5h7.5l-7.5-7.5z"/><path d="M18.75 10.304a1.878 1.878 0 01-1.875-1.875v-7.5H5.625A1.878 1.878 0 003.75 2.804v26.25c0 1.035.842 1.875 1.875 1.875h18.75c1.035 0 1.875-.84 1.875-1.875v-18.75h-7.5zm-7.5 16.875H7.5v-5.625h3.75v5.625zm5.625 0h-3.75v-9.375h3.75v9.375zm5.625 0h-3.75V14.054h3.75v13.125z"/></g><defs><clipPath id="na"><path transform="translate(0 .929)" d="M0 0h30v30H0z"/></clipPath></defs></svg><svg viewBox="0 0 30 31" id="tab7" xmlns="http://www.w3.org/2000/svg"><path d="M27.619 14.014v5.035c0 2.775-2.222 5.034-4.978 5.119v4.171l-4.172-4.171h-5.185a5.091 5.091 0 01-4.2-2.204l2.72-2.718H16.2c3.863 0 7.003-3.141 7.003-6.994v-3.31a5.118 5.118 0 014.416 5.072z"/><path d="M16.2 2.09H7.003a5.13 5.13 0 00-5.128 5.127v5.035c0 2.775 2.213 5.034 4.978 5.119v4.172l4.172-4.172H16.2a5.121 5.121 0 005.128-5.12V7.218A5.13 5.13 0 0016.2 2.09zm1.669 9.59l-2.766-.675v.234a1.41 1.41 0 01-1.406 1.407H6.74a1.41 1.41 0 01-1.407-1.407V7.555c0-.778.629-1.406 1.407-1.406h6.956c.778 0 1.406.628 1.406 1.406v.225l2.766-.675v4.575z"/><path d="M7.592 9.394a.932.932 0 100-1.863.932.932 0 000 1.863z"/></svg><svg viewBox="0 0 30 31" id="tab8" xmlns="http://www.w3.org/2000/svg"><path d="M29.121 25.168a2.64 2.64 0 01-2.637-2.637v-8.789a.879.879 0 00-.879-.879h-1.757a.879.879 0 00-.88.88v7.91H20.31a4.352 4.352 0 01.812 3.515h2.334a3.5 3.5 0 003.028 1.758h2.637a.878.878 0 100-1.758zM2.637 26.926h14.18a2.637 2.637 0 000-5.274h-.938v-1.758H3.516v1.758h-.88a2.637 2.637 0 000 5.274zm13.242-14.063V5.832h.879a.878.878 0 100-1.758H7.91a.878.878 0 100 1.758h.88v7.031h7.089z"/><path d="M.879 18.137h17.695a.879.879 0 00.88-.88V15.5a.879.879 0 00-.88-.879H7.91a.879.879 0 01-.879-.879V9.348H3.516V6.71a.879.879 0 00-.88-.879H.88a.878.878 0 100 1.758h.879v1.758h-.88a.878.878 0 00-.878.879v7.03c0 .486.394.88.879.88z"/></svg><svg viewBox="0 0 20 20" id="tel" xmlns="http://www.w3.org/2000/svg"><path d="M17.5 13.683v2.947c0 .438-.338.8-.775.831-.364.026-.661.039-.892.039C8.47 17.5 2.5 11.53 2.5 4.167c0-.23.013-.528.039-.892a.833.833 0 01.83-.775h2.948c.214 0 .393.162.414.375a11.584 11.584 0 001.06 3.794.38.38 0 01-.123.473L5.87 8.427a10.873 10.873 0 005.703 5.703l1.283-1.795a.385.385 0 01.478-.124 11.58 11.58 0 003.334 1.004c.115.017.267.035.457.054.213.021.375.2.375.414z"/></svg><svg viewBox="0 0 20 20" id="user" xmlns="http://www.w3.org/2000/svg"><path d="M16.667 18.333H3.333v-1.666A4.167 4.167 0 017.5 12.5h5a4.167 4.167 0 014.167 4.167v1.666zM10 10.833a5 5 0 110-10 5 5 0 010 10z"/></svg><svg viewBox="0 0 54 54" id="why-icon1" xmlns="http://www.w3.org/2000/svg"><path fill-rule="evenodd" clip-rule="evenodd" d="M15.183 32.692c6.831 0 12.38 5.549 12.38 12.382 0 1.753-1.105 3.28-3.137 4.331-2.243 1.161-5.74 1.782-9.243 1.782-3.505 0-7.002-.62-9.245-1.782-2.032-1.05-3.137-2.578-3.137-4.33 0-6.834 5.549-12.383 12.382-12.383zm0 3.375c-4.97 0-9.007 4.037-9.007 9.007 0 .612.601.965 1.312 1.334 1.863.963 4.783 1.404 7.695 1.404 2.91 0 5.83-.44 7.693-1.404.71-.369 1.311-.722 1.311-1.334 0-4.97-4.034-9.007-9.004-9.007zm23.634-21.375c6.833 0 12.382 5.549 12.382 12.382 0 1.753-1.105 3.28-3.137 4.331-2.243 1.161-5.74 1.782-9.245 1.782-3.503 0-7-.62-9.243-1.782-2.032-1.05-3.137-2.578-3.137-4.33 0-6.834 5.549-12.383 12.38-12.383zm0 3.375c-4.97 0-9.005 4.037-9.005 9.007 0 .612.601.965 1.312 1.334 1.863.963 4.784 1.404 7.693 1.404 2.911 0 5.832-.44 7.695-1.404.711-.369 1.312-.722 1.312-1.334 0-4.97-4.037-9.007-9.007-9.007z"/><path fill-rule="evenodd" clip-rule="evenodd" d="M15.183 20.813a7.631 7.631 0 017.628 7.627 7.631 7.631 0 01-7.628 7.628c-4.21 0-7.63-3.418-7.63-7.628s3.42-7.628 7.63-7.628zm0 3.375a4.255 4.255 0 00-4.255 4.252 4.255 4.255 0 008.507 0 4.255 4.255 0 00-4.252-4.252zM38.817 2.813c4.21 0 7.63 3.417 7.63 7.627s-3.42 7.627-7.63 7.627a7.631 7.631 0 01-7.628-7.627 7.631 7.631 0 017.628-7.627zm0 3.374a4.255 4.255 0 00-4.252 4.253 4.255 4.255 0 004.252 4.253 4.255 4.255 0 004.255-4.253 4.255 4.255 0 00-4.255-4.252zm9.007 32.061a1.688 1.688 0 013.375.004l-.007 6.755a6.188 6.188 0 01-6.188 6.18H32.626a1.688 1.688 0 010-3.374h12.38a2.813 2.813 0 002.812-2.81l.007-6.755zM6.188 15.752a1.688 1.688 0 01-3.375-.004l.006-6.755a6.187 6.187 0 016.188-6.18h16.868a1.688 1.688 0 010 3.374H9.007a2.813 2.813 0 00-2.813 2.81l-.006 6.755z"/></svg><svg viewBox="0 0 54 54" id="why-icon2" xmlns="http://www.w3.org/2000/svg"><g clip-path="url(#ta)"><path d="M50.091 49.025c-.607-2.78-3.774-13.596-15.938-17.458a13.559 13.559 0 003.386-3.028h4.73a4.98 4.98 0 004.975-4.974v-6.78c0-1.15-.393-2.208-1.05-3.051-6.343-18.296-31.993-18.328-38.359 0a4.948 4.948 0 00-1.05 3.051v6.78a4.98 4.98 0 004.974 4.974h4.732a13.558 13.558 0 003.385 3.028C7.716 35.427 4.527 46.239 3.914 49.015 3.381 51.362 5.15 54 7.95 54c8.246 0 30.151 0 38.129-.025 2.732 0 4.532-2.528 4.012-4.95zm-6.014-32.24v6.78c0 .996-.81 1.806-1.807 1.806h-2.848c1.385-3.245 1.385-7.147 0-10.392h2.848c.996 0 1.806.81 1.806 1.806zm-29.47 8.587H11.76c-.996 0-1.806-.81-1.806-1.807v-6.78c0-.996.81-1.806 1.806-1.806h2.848c-1.385 3.245-1.385 7.147 0 10.393zm-2.425-13.56c6.356-11.57 23.313-11.562 29.665 0h-4.309c-5.175-6.734-15.874-6.732-21.047 0h-4.309zm4.55 8.363c0-5.67 4.613-10.282 10.283-10.282 6.99-.136 12.155 7.287 9.667 13.784h-6.277c-2.098.077-2.099 3.09 0 3.167h4.429c-6.085 7.201-18.1 2.871-18.101-6.67zm30.071 30.288a.933.933 0 01-.73.344c-7.977.026-29.878.026-38.123.026-.584.014-1.07-.573-.94-1.147 4.886-21.06 34.857-21.525 39.985.004a.931.931 0 01-.192.773z"/></g><defs><clipPath id="ta"><path d="M0 0h54v54H0z"/></clipPath></defs></svg><svg viewBox="0 0 54 54" id="why-icon3" xmlns="http://www.w3.org/2000/svg"><g clip-path="url(#ua)"><path d="M39.656 0H14.344a4.752 4.752 0 00-4.746 4.746v44.508A4.752 4.752 0 0014.344 54h25.312a4.752 4.752 0 004.746-4.746V4.746A4.752 4.752 0 0039.656 0zM12.762 46.806v-4.541l28.476-28.487v4.506l-7.411 7.412a1.582 1.582 0 00-.004 2.233l7.415 7.466v4.424L31.59 30.17a1.582 1.582 0 00-1.119-.463h-.001c-.42 0-.823.167-1.12.465L12.763 46.806zm7.384-16.404l-7.384 7.387V23.018l7.384 7.384zm21.092.502l-4.059-4.086 4.06-4.059v8.145zm0-26.158v4.557L22.383 28.165 16.21 21.99 28.707 9.493h4.617c.873 0 1.582-.709 1.582-1.582V3.164h4.75c.872 0 1.582.71 1.582 1.582zM22.25 3.164h9.492V6.33H22.25V3.164zm-7.906 0h4.742v4.747c0 .873.708 1.582 1.582 1.582h3.564l-10.26 10.26-1.21-1.21V4.746c0-.872.71-1.582 1.582-1.582zm-.871 47.41l8.62-8.644 8.906 8.906H14.344c-.322 0-.621-.097-.871-.263zm26.183.262h-4.183L24.327 39.69l6.145-6.162 10.766 10.766v4.96c0 .872-.71 1.582-1.582 1.582z"/></g><defs><clipPath id="ua"><path d="M0 0h54v54H0z"/></clipPath></defs></svg></svg>