<svg width="50" height="50" viewBox="0 0 50 50" fill="none" xmlns="http://www.w3.org/2000/svg">
<g clip-path="url(#clip0_129_317)">
<path d="M41.0569 49.1478C30.3864 50.2862 19.6251 50.2862 8.95461 49.1478C6.8825 48.929 4.948 48.0065 3.47362 46.5342C1.99924 45.0619 1.07406 43.1287 0.852339 41.0569C-0.286066 30.3864 -0.286066 19.6251 0.852339 8.95461C1.07116 6.8825 1.99362 4.948 3.46593 3.47362C4.93825 1.99924 6.87145 1.07406 8.94325 0.852339C19.6137 -0.286066 30.375 -0.286066 41.0455 0.852339C43.1176 1.07116 45.0521 1.99362 46.5265 3.46593C48.0009 4.93825 48.9261 6.87145 49.1478 8.94325C50.2862 19.6137 50.2862 30.375 49.1478 41.0455C48.929 43.1176 48.0065 45.0521 46.5342 46.5265C45.0619 48.0009 43.1287 48.9261 41.0569 49.1478Z" fill="#4169E1"/>
<path d="M39.4092 33.9318C38.682 34.0341 35.1252 33.9318 34.9405 33.9318C34.0211 33.9436 33.134 33.5924 32.4717 32.9545C31.7217 32.2329 31.0513 31.4375 30.3183 30.6818C30.1016 30.4524 29.8669 30.2406 29.6166 30.0483C29.0314 29.5966 28.4519 29.6989 28.1763 30.3892C27.961 31.1352 27.8108 31.8985 27.7274 32.6704C27.6791 33.3693 27.236 33.8068 26.4519 33.8551C25.9661 33.8807 25.4803 33.8892 25.0002 33.8778C23.2504 33.8666 21.5282 33.4412 19.9746 32.6363C18.2935 31.6996 16.8289 30.4189 15.6763 28.8778C13.7814 26.4574 12.2672 23.7983 10.9149 21.0568C10.8439 20.9204 9.45754 17.9716 9.42345 17.8324C9.29845 17.3665 9.42345 16.9204 9.80697 16.767C10.0513 16.6733 14.6195 16.767 14.6962 16.767C15.0358 16.7641 15.3675 16.8693 15.6433 17.0675C15.9191 17.2657 16.1247 17.5465 16.2303 17.8693C17.0747 20.0316 18.2309 22.0587 19.6621 23.8864C19.8624 24.1307 20.0968 24.3451 20.3581 24.5227C20.7303 24.7756 21.0825 24.6875 21.236 24.2585C21.4177 23.6633 21.5246 23.0478 21.5541 22.4261C21.5797 21.1932 21.5541 20.3807 21.486 19.1506C21.4405 18.3608 21.1621 17.6676 19.9973 17.446C19.6394 17.3835 19.6081 17.0881 19.8382 16.7926C20.3183 16.179 20.9746 16.0824 21.7104 16.0454C22.807 15.9829 23.9036 16.0256 25.0002 16.0454H25.2388C25.7161 16.0437 26.1922 16.0923 26.6592 16.1903C26.9354 16.2462 27.186 16.3897 27.3739 16.5996C27.5618 16.8095 27.6768 17.0745 27.7019 17.3551C27.758 17.6662 27.7818 17.9823 27.7729 18.2983C27.7445 19.6449 27.6791 20.9886 27.6649 22.3352C27.6518 22.8684 27.7005 23.4013 27.8098 23.9233C27.9661 24.6392 28.4575 24.8182 28.9462 24.3011C29.5789 23.6327 30.1592 22.9166 30.682 22.1591C31.6064 20.7785 32.3689 19.2962 32.9547 17.7415C33.2729 16.9432 33.5229 16.767 34.3752 16.767H39.2217C39.5099 16.762 39.7972 16.8003 40.074 16.8807C40.172 16.9064 40.2636 16.9521 40.3431 17.0149C40.4226 17.0777 40.4882 17.1562 40.536 17.2455C40.5837 17.3349 40.6125 17.4331 40.6205 17.5341C40.6285 17.6351 40.6156 17.7366 40.5825 17.8324C40.3439 18.8949 39.77 19.8011 39.1621 20.6733C38.1763 22.071 37.1365 23.4318 36.128 24.8068C36.0004 24.9892 35.8838 25.1789 35.7786 25.375C35.3979 26.0596 35.4263 26.4432 35.9774 27.0142C36.8581 27.9176 37.7985 28.767 38.6479 29.6989C39.2716 30.3763 39.8343 31.1073 40.3297 31.8835C40.9519 32.8466 40.5683 33.767 39.4092 33.9318Z" fill="white"/>
</g>
<defs>
<clipPath id="clip0_129_317">
<rect width="50" height="50" fill="white"/>
</clipPath>
</defs>
</svg>
